<?xml version="1.0" encoding="utf-8"?>
<!-- Generator: Adobe Illustrator 22.1.0, SVG Export Plug-In . SVG Version: 6.00 Build 0)  -->
<svg version="1.1" id="Ebene_1" xmlns="http://www.w3.org/2000/svg" xmlns:xlink="http://www.w3.org/1999/xlink" x="0px" y="0px"
	 width="50.053px" height="41.238px" viewBox="0 0 50.053 41.238" enable-background="new 0 0 50.053 41.238" xml:space="preserve">
<path fill="#FFFFFF" d="M34.017,25.021c-2.914,0-5.277-2.362-5.279-5.276v-0.004c0-2.915,2.364-5.279,5.279-5.279
	c2.916,0,5.28,2.364,5.28,5.279C39.297,22.657,36.933,25.021,34.017,25.021 M49.518,40.852l-11.112-9.994
	c4.428-1.749,7.56-6.067,7.56-11.117c0-6.599-5.349-11.948-11.949-11.948c-6.599,0-11.948,5.349-11.948,11.948v4.42
	c-1.099,0-3.871,0-6.447,0c-4.58,0.001-8.842-3.946-8.842-8.709c0-4.762,4.262-8.623,8.842-8.623h6.447V0.142L15.812,0
	C7.622,0,0,6.903,0,15.418c0,8.516,7.622,15.574,15.812,15.573c4.605,0,4.292,0,6.257,0v10.342h6.669V30.94L40.27,41.333h9.783
	L49.518,40.852z"/>
</svg>
