<?xml version="1.0" encoding="UTF-8" standalone="no"?>
<!DOCTYPE svg PUBLIC "-//W3C//DTD SVG 1.1//EN" "http://www.w3.org/Graphics/SVG/1.1/DTD/svg11.dtd">
<svg width="960" height="441" viewBox="0 0 960 441" version="1.1" xmlns="http://www.w3.org/2000/svg" xmlns:xlink="http://www.w3.org/1999/xlink" xml:space="preserve" xmlns:serif="http://www.serif.com/" style="fill-rule:evenodd;clip-rule:evenodd;stroke-linejoin:round;stroke-miterlimit:1.41421;"><path d="M16.172,439.552l3.419,0c0.606,0 0.987,-0.279 1.141,-0.838l10.787,-42.237c0.05,-0.154 0.125,-0.229 0.228,-0.229c0.1,0 0.175,0.075 0.225,0.229l10.941,42.237c0.153,0.559 0.531,0.838 1.14,0.838l3.647,0c0.557,0 0.91,-0.279 1.063,-0.838l14.206,-51.2c0.1,-0.356 0.075,-0.634 -0.075,-0.837c-0.153,-0.2 -0.406,-0.304 -0.762,-0.304l-3.494,0c-0.556,0 -0.913,0.279 -1.063,0.835l-11.397,41.253c-0.05,0.15 -0.125,0.225 -0.228,0.225c-0.1,0 -0.178,-0.075 -0.225,-0.225l-11.093,-41.253c-0.15,-0.556 -0.507,-0.835 -1.063,-0.835l-3.647,0c-0.606,0 -0.987,0.279 -1.14,0.835l-10.635,41.175c-0.05,0.153 -0.128,0.228 -0.228,0.228c-0.103,0 -0.178,-0.075 -0.228,-0.228l-11.394,-41.175c-0.153,-0.556 -0.506,-0.835 -1.065,-0.835l-3.722,0c-0.607,0 -0.913,0.279 -0.913,0.835l0.078,0.306l14.435,51.2c0.15,0.559 0.503,0.838 1.062,0.838m80.472,-37.454l0,23.854c0,2.837 -0.847,5.118 -2.544,6.837c-1.697,1.722 -3.987,2.584 -6.875,2.584c-2.787,0 -4.99,-0.846 -6.609,-2.546c-1.622,-1.694 -2.431,-3.988 -2.431,-6.875l0,-23.854c0,-0.656 -0.332,-0.987 -0.988,-0.987l-3.419,0c-0.659,0 -0.987,0.331 -0.987,0.987l0,25.45c0,2.635 0.594,4.888 1.784,6.76c1.191,1.875 2.813,3.306 4.863,4.294c2.05,0.987 4.294,1.481 6.725,1.481c4.506,0 7.847,-1.519 10.025,-4.56c0.103,-0.15 0.203,-0.2 0.306,-0.15c0.1,0.05 0.15,0.15 0.15,0.304l0,2.887c0,0.659 0.328,0.988 0.988,0.988l3.418,0c0.66,0 0.988,-0.329 0.988,-0.988l0,-36.466c0,-0.656 -0.328,-0.987 -0.988,-0.987l-3.418,0c-0.66,0 -0.988,0.331 -0.988,0.987m-15.422,-8.128c1.013,0 1.85,-0.328 2.51,-0.987c0.656,-0.66 0.987,-1.494 0.987,-2.51c0,-1.009 -0.331,-1.859 -0.987,-2.543c-0.66,-0.682 -1.497,-1.025 -2.51,-1.025c-1.062,0 -1.937,0.343 -2.619,1.025c-0.684,0.684 -1.025,1.534 -1.025,2.543c0,1.016 0.341,1.85 1.025,2.51c0.682,0.659 1.557,0.987 2.619,0.987m12.763,0c1.065,0 1.925,-0.328 2.584,-0.987c0.656,-0.66 0.988,-1.494 0.988,-2.51c0,-1.009 -0.332,-1.859 -0.988,-2.543c-0.659,-0.682 -1.519,-1.025 -2.584,-1.025c-1.063,0 -1.925,0.343 -2.582,1.025c-0.659,0.684 -0.987,1.534 -0.987,2.543c0,1.016 0.328,1.85 0.987,2.51c0.657,0.659 1.519,0.987 2.582,0.987m38.525,6.763c-2.128,0 -4.016,0.506 -5.66,1.515c-1.647,1.016 -3,2.435 -4.065,4.257c-0.1,0.153 -0.191,0.215 -0.266,0.19c-0.075,-0.025 -0.112,-0.14 -0.112,-0.343l0,-4.254c0,-0.656 -0.332,-0.987 -0.988,-0.987l-3.419,0c-0.659,0 -0.987,0.331 -0.987,0.987l0,36.466c0,0.659 0.328,0.988 0.987,0.988l3.419,0c0.656,0 0.988,-0.329 0.988,-0.988l0,-22.184c0,-2.835 0.859,-5.178 2.581,-7.028c1.722,-1.847 3.9,-2.819 6.534,-2.922c1.519,-0.05 2.76,0.075 3.722,0.378c0.656,0.203 1.063,0 1.216,-0.606l0.759,-3.344c0.153,-0.61 -0.025,-1.013 -0.531,-1.216c-1.116,-0.606 -2.506,-0.909 -4.178,-0.909m34.959,3.872l0,-2.507c0,-0.656 -0.328,-0.987 -0.987,-0.987l-8.282,0c-0.253,0 -0.378,-0.125 -0.378,-0.378l0,-8.51c0,-0.656 -0.331,-0.987 -0.987,-0.987l-3.269,0c-0.656,0 -0.988,0.331 -0.988,0.987l0,8.51c0,0.253 -0.125,0.378 -0.378,0.378l-4.331,0c-0.659,0 -0.987,0.331 -0.987,0.987l0,2.507c0,0.659 0.328,0.987 0.987,0.987l4.331,0c0.253,0 0.378,0.128 0.378,0.381l0,23.854c0,3.696 0.938,6.228 2.813,7.596c1.872,1.369 4.634,2.054 8.281,2.054l2.581,0c0.66,-0.054 0.988,-0.407 0.988,-1.066l0,-2.659c0,-0.657 -0.328,-0.988 -0.988,-0.988l-1.671,0c-2.329,0 -4.038,-0.494 -5.129,-1.481c-1.087,-0.988 -1.631,-2.697 -1.631,-5.125l0,-22.185c0,-0.253 0.125,-0.381 0.378,-0.381l8.282,0c0.659,0 0.987,-0.328 0.987,-0.987m31.663,0l0,-2.507c0,-0.656 -0.329,-0.987 -0.988,-0.987l-8.278,0c-0.256,0 -0.381,-0.125 -0.381,-0.378l0,-8.51c0,-0.656 -0.328,-0.987 -0.988,-0.987l-3.265,0c-0.66,0 -0.988,0.331 -0.988,0.987l0,8.51c0,0.253 -0.128,0.378 -0.381,0.378l-4.328,0c-0.66,0 -0.988,0.331 -0.988,0.987l0,2.507c0,0.659 0.328,0.987 0.988,0.987l4.328,0c0.253,0 0.381,0.128 0.381,0.381l0,23.854c0,3.696 0.934,6.228 2.809,7.596c1.875,1.369 4.635,2.054 8.282,2.054l2.584,0c0.656,-0.054 0.988,-0.407 0.988,-1.066l0,-2.659c0,-0.657 -0.332,-0.988 -0.988,-0.988l-1.672,0c-2.331,0 -4.04,-0.494 -5.128,-1.481c-1.091,-0.988 -1.634,-2.697 -1.634,-5.125l0,-22.185c0,-0.253 0.125,-0.381 0.381,-0.381l8.278,0c0.659,0 0.988,-0.328 0.988,-0.987m17.421,34.718c1.316,0 2.432,-0.428 3.341,-1.29c0.913,-0.863 1.369,-1.925 1.369,-3.191c0,-1.215 -0.481,-2.265 -1.444,-3.153c-0.962,-0.887 -2.05,-1.331 -3.266,-1.331c-1.268,0 -2.368,0.444 -3.306,1.331c-0.937,0.888 -1.406,1.938 -1.406,3.153c0,1.266 0.444,2.328 1.331,3.191c0.885,0.862 2.013,1.29 3.381,1.29m39.957,0.229l3.418,0c0.66,0 0.988,-0.329 0.988,-0.988l-0.075,-41.022c0,-0.203 0.05,-0.315 0.153,-0.344c0.1,-0.025 0.2,0.038 0.303,0.191l25.6,41.478c0.303,0.456 0.685,0.685 1.141,0.685l3.419,0c0.656,0 0.987,-0.329 0.987,-0.988l0,-51.203c0,-0.659 -0.331,-0.988 -0.987,-0.988l-3.419,0c-0.66,0 -0.988,0.329 -0.988,0.988l0,40.869c0,0.203 -0.053,0.318 -0.153,0.343c-0.1,0.029 -0.203,-0.037 -0.303,-0.19l-25.525,-41.325c-0.303,-0.456 -0.684,-0.685 -1.141,-0.685l-3.418,0c-0.66,0 -0.988,0.329 -0.988,0.988l0,51.203c0,0.659 0.328,0.988 0.988,0.988m66.147,0.606c3.593,0 6.696,-0.935 9.306,-2.81c2.606,-1.875 4.415,-4.456 5.431,-7.75c0.706,-2.328 1.063,-5.443 1.063,-9.343c0,-3.8 -0.357,-6.913 -1.063,-9.344c-0.962,-3.191 -2.75,-5.722 -5.356,-7.597c-2.61,-1.872 -5.738,-2.812 -9.381,-2.812c-3.75,0 -6.929,0.94 -9.535,2.812c-2.609,1.875 -4.419,4.431 -5.431,7.672c-0.659,2.331 -0.988,5.422 -0.988,9.269c0,3.9 0.354,7.015 1.063,9.343c1.012,3.294 2.822,5.875 5.431,7.75c2.61,1.875 5.76,2.81 9.46,2.81m0,-4.71c-2.535,0 -4.672,-0.668 -6.422,-2.012c-1.747,-1.341 -2.9,-3.153 -3.457,-5.431c-0.406,-1.469 -0.606,-4.028 -0.606,-7.672c0,-3.647 0.2,-6.206 0.606,-7.675c0.61,-2.278 1.772,-4.091 3.497,-5.431c1.719,-1.341 3.797,-2.013 6.228,-2.013c2.532,0 4.672,0.672 6.419,2.013c1.747,1.34 2.9,3.153 3.456,5.431c0.407,1.469 0.61,4.028 0.61,7.675c0,3.494 -0.203,6.05 -0.61,7.672c-0.606,2.278 -1.771,4.09 -3.493,5.431c-1.722,1.344 -3.8,2.012 -6.228,2.012m46.134,-30.843l0,-2.507c0,-0.656 -0.331,-0.987 -0.988,-0.987l-8.281,0c-0.253,0 -0.381,-0.125 -0.381,-0.378l0,-8.51c0,-0.656 -0.328,-0.987 -0.988,-0.987l-3.265,0c-0.66,0 -0.988,0.331 -0.988,0.987l0,8.51c0,0.253 -0.128,0.378 -0.381,0.378l-4.328,0c-0.659,0 -0.988,0.331 -0.988,0.987l0,2.507c0,0.659 0.329,0.987 0.988,0.987l4.328,0c0.253,0 0.381,0.128 0.381,0.381l0,23.854c0,3.696 0.938,6.228 2.81,7.596c1.875,1.369 4.634,2.054 8.281,2.054l2.584,0c0.657,-0.054 0.988,-0.407 0.988,-1.066l0,-2.659c0,-0.657 -0.331,-0.988 -0.988,-0.988l-1.672,0c-2.331,0 -4.04,-0.494 -5.128,-1.481c-1.09,-0.988 -1.634,-2.697 -1.634,-5.125l0,-22.185c0,-0.253 0.128,-0.381 0.381,-0.381l8.281,0c0.657,0 0.988,-0.328 0.988,-0.987m26.747,-4.103c-3.9,0 -7.153,0.862 -9.763,2.584c-2.609,1.722 -4.165,3.978 -4.672,6.762c-0.05,0.457 0.254,0.735 0.913,0.835l3.722,0.456c0.609,0.1 0.987,-0.153 1.14,-0.759c0.404,-1.622 1.366,-2.888 2.888,-3.8c1.519,-0.91 3.466,-1.366 5.847,-1.366c3.04,0 5.281,0.747 6.725,2.241c1.444,1.493 2.165,3.531 2.165,6.115l0,2.81c0,0.256 -0.128,0.381 -0.381,0.381l-8.812,0c-4.913,0 -8.75,1.103 -11.51,3.303c-2.759,2.203 -4.14,5.206 -4.14,9.003c0,3.75 1.203,6.535 3.609,8.356c2.406,1.822 5.381,2.735 8.928,2.735c2.428,0 4.672,-0.378 6.722,-1.138c2.05,-0.762 3.759,-1.875 5.128,-3.343c0.1,-0.154 0.2,-0.204 0.303,-0.154c0.1,0.054 0.153,0.154 0.153,0.307l0,2.734c0,0.659 0.329,0.988 0.988,0.988l3.419,0c0.656,0 0.987,-0.329 0.987,-0.988l0,-25.3c0,-3.847 -1.253,-6.934 -3.762,-9.266c-2.507,-2.331 -6.038,-3.496 -10.597,-3.496m-2.128,35.021c-2.428,0 -4.432,-0.568 -6,-1.706c-1.572,-1.14 -2.357,-2.825 -2.357,-5.053c0,-2.431 1.013,-4.331 3.041,-5.697c2.025,-1.369 4.709,-2.053 8.053,-2.053l7.975,0c0.253,0 0.381,0.128 0.381,0.381l0,5.85c0,2.532 -1.103,4.547 -3.306,6.038c-2.203,1.497 -4.797,2.24 -7.787,2.24m46.447,-34.79c-2.125,0 -4.013,0.506 -5.66,1.515c-1.647,1.016 -3,2.435 -4.062,4.257c-0.103,0.153 -0.191,0.215 -0.269,0.19c-0.075,-0.025 -0.113,-0.14 -0.113,-0.343l0,-4.254c0,-0.656 -0.331,-0.987 -0.987,-0.987l-3.419,0c-0.659,0 -0.987,0.331 -0.987,0.987l0,36.466c0,0.659 0.328,0.988 0.987,0.988l3.419,0c0.656,0 0.987,-0.329 0.987,-0.988l0,-22.184c0,-2.835 0.86,-5.178 2.585,-7.028c1.719,-1.847 3.897,-2.819 6.531,-2.922c1.519,-0.05 2.759,0.075 3.722,0.378c0.659,0.203 1.066,0 1.216,-0.606l0.759,-3.344c0.153,-0.61 -0.025,-1.013 -0.531,-1.216c-1.113,-0.606 -2.507,-0.909 -4.178,-0.909m18.968,-6.535c1.216,0 2.203,-0.365 2.963,-1.103c0.759,-0.734 1.14,-1.681 1.14,-2.847c0,-1.165 -0.381,-2.103 -1.14,-2.812c-0.76,-0.706 -1.747,-1.063 -2.963,-1.063c-1.215,0 -2.203,0.357 -2.962,1.063c-0.76,0.709 -1.138,1.647 -1.138,2.812c0,1.166 0.378,2.113 1.138,2.847c0.759,0.738 1.747,1.103 2.962,1.103m-1.672,45.354l3.419,0c0.66,0 0.988,-0.329 0.988,-0.988l0,-36.466c0,-0.656 -0.328,-0.987 -0.988,-0.987l-3.419,0c-0.656,0 -0.987,0.331 -0.987,0.987l0,36.466c0,0.659 0.331,0.988 0.987,0.988m33.032,-39.05c-3.9,0 -7.153,0.862 -9.763,2.584c-2.606,1.722 -4.165,3.978 -4.672,6.762c-0.05,0.457 0.253,0.735 0.913,0.835l3.722,0.456c0.609,0.1 0.987,-0.153 1.14,-0.759c0.407,-1.622 1.369,-2.888 2.888,-3.8c1.519,-0.91 3.469,-1.366 5.85,-1.366c3.037,0 5.278,0.747 6.722,2.241c1.443,1.493 2.165,3.531 2.165,6.115l0,2.81c0,0.256 -0.128,0.381 -0.381,0.381l-8.812,0c-4.913,0 -8.747,1.103 -11.51,3.303c-2.759,2.203 -4.137,5.206 -4.137,9.003c0,3.75 1.2,6.535 3.606,8.356c2.406,1.822 5.381,2.735 8.928,2.735c2.431,0 4.672,-0.378 6.722,-1.138c2.05,-0.762 3.759,-1.875 5.128,-3.343c0.1,-0.154 0.203,-0.204 0.303,-0.154c0.103,0.054 0.153,0.154 0.153,0.307l0,2.734c0,0.659 0.328,0.988 0.988,0.988l3.419,0c0.656,0 0.987,-0.329 0.987,-0.988l0,-25.3c0,-3.847 -1.253,-6.934 -3.759,-9.266c-2.51,-2.331 -6.041,-3.496 -10.6,-3.496m-2.125,35.021c-2.432,0 -4.435,-0.568 -6.003,-1.706c-1.569,-1.14 -2.354,-2.825 -2.354,-5.053c0,-2.431 1.013,-4.331 3.038,-5.697c2.025,-1.369 4.709,-2.053 8.053,-2.053l7.975,0c0.253,0 0.381,0.128 0.381,0.381l0,5.85c0,2.532 -1.103,4.547 -3.306,6.038c-2.203,1.497 -4.797,2.24 -7.784,2.24m47.668,-30.918l0,-2.507c0,-0.656 -0.331,-0.987 -0.987,-0.987l-8.281,0c-0.253,0 -0.382,-0.125 -0.382,-0.378l0,-8.51c0,-0.656 -0.328,-0.987 -0.987,-0.987l-3.266,0c-0.659,0 -0.987,0.331 -0.987,0.987l0,8.51c0,0.253 -0.128,0.378 -0.381,0.378l-4.329,0c-0.659,0 -0.987,0.331 -0.987,0.987l0,2.507c0,0.659 0.328,0.987 0.987,0.987l4.329,0c0.253,0 0.381,0.128 0.381,0.381l0,23.854c0,3.696 0.937,6.228 2.809,7.596c1.875,1.369 4.635,2.054 8.281,2.054l2.585,0c0.656,-0.054 0.987,-0.407 0.987,-1.066l0,-2.659c0,-0.657 -0.331,-0.988 -0.987,-0.988l-1.672,0c-2.331,0 -4.041,-0.494 -5.128,-1.481c-1.091,-0.988 -1.635,-2.697 -1.635,-5.125l0,-22.185c0,-0.253 0.129,-0.381 0.382,-0.381l8.281,0c0.656,0 0.987,-0.328 0.987,-0.987m25.594,35.328c4.303,0 7.735,-0.991 10.294,-2.966c2.556,-1.975 3.834,-4.606 3.834,-7.9c0,-2.328 -0.659,-4.228 -1.975,-5.697c-1.315,-1.468 -2.887,-2.584 -4.709,-3.343c-1.822,-0.76 -4.203,-1.544 -7.141,-2.354c-3.19,-0.912 -5.534,-1.825 -7.028,-2.734c-1.494,-0.912 -2.24,-2.228 -2.24,-3.953c0,-1.822 0.784,-3.253 2.356,-4.291c1.569,-1.037 3.647,-1.559 6.228,-1.559c2.784,0 5,0.584 6.647,1.747c1.647,1.165 2.469,2.609 2.469,4.331l0,0.456c0,0.357 0.331,0.532 0.987,0.532l3.116,0c0.656,0 0.987,-0.329 0.987,-0.988c0,-1.975 -0.581,-3.759 -1.747,-5.356c-1.165,-1.594 -2.825,-2.847 -4.975,-3.76c-2.153,-0.912 -4.622,-1.365 -7.409,-1.365c-4.153,0 -7.506,0.962 -10.066,2.884c-2.556,1.925 -3.834,4.51 -3.834,7.75c0,2.228 0.631,4.063 1.897,5.506c1.265,1.444 2.812,2.572 4.634,3.382c1.825,0.809 4.153,1.622 6.991,2.431c2.328,0.709 4.075,1.291 5.24,1.747c1.166,0.456 2.154,1.09 2.963,1.9c0.809,0.809 1.216,1.85 1.216,3.115c0,1.822 -0.81,3.332 -2.432,4.519c-1.618,1.191 -3.747,1.785 -6.381,1.785c-2.634,0 -4.812,-0.619 -6.531,-1.863c-1.722,-1.237 -2.585,-2.694 -2.585,-4.366l0,-0.684c0,-0.203 -0.087,-0.366 -0.265,-0.494c-0.178,-0.125 -0.419,-0.187 -0.722,-0.187l-3.266,0c-0.659,0 -0.987,0.328 -0.987,0.984l0,0.685c0,1.875 0.594,3.571 1.784,5.09c1.191,1.519 2.888,2.735 5.091,3.647c2.203,0.913 4.722,1.369 7.559,1.369m41.197,-39.431c-3.9,0 -7.156,0.862 -9.762,2.584c-2.61,1.722 -4.166,3.978 -4.672,6.762c-0.05,0.457 0.253,0.735 0.912,0.835l3.722,0.456c0.606,0.1 0.988,-0.153 1.138,-0.759c0.406,-1.622 1.368,-2.888 2.887,-3.8c1.519,-0.91 3.469,-1.366 5.85,-1.366c3.038,0 5.281,0.747 6.722,2.241c1.444,1.493 2.166,3.531 2.166,6.115l0,2.81c0,0.256 -0.125,0.381 -0.379,0.381l-8.812,0c-4.913,0 -8.75,1.103 -11.509,3.303c-2.763,2.203 -4.141,5.206 -4.141,9.003c0,3.75 1.203,6.535 3.609,8.356c2.403,1.822 5.382,2.735 8.925,2.735c2.432,0 4.672,-0.378 6.725,-1.138c2.05,-0.762 3.76,-1.875 5.125,-3.343c0.103,-0.154 0.203,-0.204 0.307,-0.154c0.1,0.054 0.15,0.154 0.15,0.307l0,2.734c0,0.659 0.331,0.988 0.987,0.988l3.419,0c0.659,0 0.987,-0.329 0.987,-0.988l0,-25.3c0,-3.847 -1.253,-6.934 -3.759,-9.266c-2.506,-2.331 -6.041,-3.496 -10.597,-3.496m-2.128,35.021c-2.431,0 -4.431,-0.568 -6,-1.706c-1.572,-1.14 -2.356,-2.825 -2.356,-5.053c0,-2.431 1.012,-4.331 3.037,-5.697c2.025,-1.369 4.713,-2.053 8.053,-2.053l7.978,0c0.254,0 0.379,0.128 0.379,0.381l0,5.85c0,2.532 -1.1,4.547 -3.304,6.038c-2.203,1.497 -4.8,2.24 -7.787,2.24m43.553,4.41c4.303,0 7.734,-0.991 10.294,-2.966c2.556,-1.975 3.834,-4.606 3.834,-7.9c0,-2.328 -0.659,-4.228 -1.975,-5.697c-1.315,-1.468 -2.887,-2.584 -4.709,-3.343c-1.822,-0.76 -4.203,-1.544 -7.141,-2.354c-3.19,-0.912 -5.534,-1.825 -7.028,-2.734c-1.494,-0.912 -2.241,-2.228 -2.241,-3.953c0,-1.822 0.785,-3.253 2.357,-4.291c1.568,-1.037 3.647,-1.559 6.228,-1.559c2.784,0 5,0.584 6.647,1.747c1.647,1.165 2.468,2.609 2.468,4.331l0,0.456c0,0.357 0.329,0.532 0.988,0.532l3.116,0c0.656,0 0.987,-0.329 0.987,-0.988c0,-1.975 -0.584,-3.759 -1.747,-5.356c-1.165,-1.594 -2.825,-2.847 -4.975,-3.76c-2.153,-0.912 -4.625,-1.365 -7.409,-1.365c-4.153,0 -7.51,0.962 -10.066,2.884c-2.556,1.925 -3.834,4.51 -3.834,7.75c0,2.228 0.631,4.063 1.897,5.506c1.265,1.444 2.812,2.572 4.634,3.382c1.825,0.809 4.153,1.622 6.991,2.431c2.328,0.709 4.075,1.291 5.24,1.747c1.166,0.456 2.153,1.09 2.963,1.9c0.809,0.809 1.215,1.85 1.215,3.115c0,1.822 -0.809,3.332 -2.431,4.519c-1.622,1.191 -3.747,1.785 -6.381,1.785c-2.634,0 -4.813,-0.619 -6.531,-1.863c-1.725,-1.237 -2.585,-2.694 -2.585,-4.366l0,-0.684c0,-0.203 -0.087,-0.366 -0.265,-0.494c-0.178,-0.125 -0.419,-0.187 -0.722,-0.187l-3.266,0c-0.659,0 -0.987,0.328 -0.987,0.984l0,0.685c0,1.875 0.593,3.571 1.784,5.09c1.191,1.519 2.888,2.735 5.091,3.647c2.203,0.913 4.722,1.369 7.559,1.369m40.125,0c4.303,0 7.734,-0.991 10.294,-2.966c2.556,-1.975 3.837,-4.606 3.837,-7.9c0,-2.328 -0.659,-4.228 -1.978,-5.697c-1.315,-1.468 -2.884,-2.584 -4.709,-3.343c-1.822,-0.76 -4.203,-1.544 -7.141,-2.354c-3.19,-0.912 -5.534,-1.825 -7.025,-2.734c-1.497,-0.912 -2.244,-2.228 -2.244,-3.953c0,-1.822 0.785,-3.253 2.357,-4.291c1.568,-1.037 3.647,-1.559 6.228,-1.559c2.784,0 5.003,0.584 6.65,1.747c1.644,1.165 2.469,2.609 2.469,4.331l0,0.456c0,0.357 0.328,0.532 0.987,0.532l3.113,0c0.659,0 0.987,-0.329 0.987,-0.988c0,-1.975 -0.581,-3.759 -1.747,-5.356c-1.165,-1.594 -2.822,-2.847 -4.975,-3.76c-2.153,-0.912 -4.622,-1.365 -7.406,-1.365c-4.153,0 -7.509,0.962 -10.066,2.884c-2.559,1.925 -3.837,4.51 -3.837,7.75c0,2.228 0.631,4.063 1.9,5.506c1.265,1.444 2.809,2.572 4.634,3.382c1.822,0.809 4.15,1.622 6.988,2.431c2.328,0.709 4.078,1.291 5.243,1.747c1.163,0.456 2.15,1.09 2.963,1.9c0.809,0.809 1.216,1.85 1.216,3.115c0,1.822 -0.813,3.332 -2.432,4.519c-1.622,1.191 -3.75,1.785 -6.381,1.785c-2.634,0 -4.812,-0.619 -6.534,-1.863c-1.722,-1.237 -2.585,-2.694 -2.585,-4.366l0,-0.684c0,-0.203 -0.087,-0.366 -0.265,-0.494c-0.178,-0.125 -0.416,-0.187 -0.722,-0.187l-3.266,0c-0.659,0 -0.987,0.328 -0.987,0.984l0,0.685c0,1.875 0.593,3.571 1.784,5.09c1.191,1.519 2.888,2.735 5.091,3.647c2.203,0.913 4.722,1.369 7.559,1.369m41.941,-4.41c-2.735,0 -5,-0.668 -6.797,-2.012c-1.8,-1.341 -2.978,-3.153 -3.535,-5.431c-0.303,-1.163 -0.456,-3.013 -0.456,-5.547c0,-0.25 0.128,-0.378 0.381,-0.378l24.31,0c0.656,0 0.987,-0.328 0.987,-0.988c0,-3.444 -0.153,-5.975 -0.456,-7.597c-0.709,-4.153 -2.316,-7.368 -4.825,-9.647c-2.506,-2.281 -5.962,-3.421 -10.369,-3.421c-3.697,0 -6.85,0.99 -9.456,2.965c-2.609,1.972 -4.344,4.61 -5.206,7.9c-0.303,1.113 -0.494,2.316 -0.569,3.61c-0.075,1.29 -0.112,3.025 -0.112,5.203c0,4.456 0.478,7.95 1.44,10.484c1.066,2.988 2.813,5.316 5.244,6.988c2.431,1.671 5.419,2.506 8.962,2.506c3.344,0 6.232,-0.744 8.663,-2.241c2.431,-1.49 4.253,-3.506 5.469,-6.04c0.303,-0.504 0.153,-0.935 -0.457,-1.291l-2.203,-1.216c-0.253,-0.15 -0.506,-0.175 -0.759,-0.075c-0.253,0.1 -0.431,0.278 -0.531,0.532c-0.913,1.775 -2.191,3.153 -3.838,4.14c-1.647,0.988 -3.606,1.506 -5.887,1.556m-0.76,-30.309c2.585,0 4.722,0.672 6.419,2.013c1.697,1.34 2.825,3.153 3.381,5.431c0.203,1.012 0.353,2.634 0.457,4.862c0,0.253 -0.129,0.378 -0.382,0.378l-19.522,0c-0.253,0 -0.381,-0.125 -0.381,-0.378c0.103,-2.431 0.306,-4.153 0.61,-5.165c0.506,-2.178 1.568,-3.913 3.19,-5.203c1.619,-1.294 3.697,-1.938 6.228,-1.938m41.744,34.719c4.306,0 7.738,-0.991 10.294,-2.966c2.559,-1.975 3.837,-4.606 3.837,-7.9c0,-2.328 -0.659,-4.228 -1.975,-5.697c-1.318,-1.468 -2.887,-2.584 -4.709,-3.343c-1.825,-0.76 -4.206,-1.544 -7.141,-2.354c-3.19,-0.912 -5.534,-1.825 -7.028,-2.734c-1.494,-0.912 -2.24,-2.228 -2.24,-3.953c0,-1.822 0.784,-3.253 2.353,-4.291c1.572,-1.037 3.647,-1.559 6.231,-1.559c2.784,0 5,0.584 6.647,1.747c1.644,1.165 2.469,2.609 2.469,4.331l0,0.456c0,0.357 0.328,0.532 0.987,0.532l3.116,0c0.656,0 0.987,-0.329 0.987,-0.988c0,-1.975 -0.584,-3.759 -1.747,-5.356c-1.165,-1.594 -2.825,-2.847 -4.978,-3.76c-2.153,-0.912 -4.622,-1.365 -7.406,-1.365c-4.153,0 -7.509,0.962 -10.066,2.884c-2.559,1.925 -3.837,4.51 -3.837,7.75c0,2.228 0.634,4.063 1.9,5.506c1.265,1.444 2.812,2.572 4.634,3.382c1.822,0.809 4.153,1.622 6.991,2.431c2.328,0.709 4.075,1.291 5.24,1.747c1.166,0.456 2.154,1.09 2.963,1.9c0.809,0.809 1.216,1.85 1.216,3.115c0,1.822 -0.81,3.332 -2.432,4.519c-1.622,1.191 -3.747,1.785 -6.381,1.785c-2.634,0 -4.812,-0.619 -6.534,-1.863c-1.722,-1.237 -2.582,-2.694 -2.582,-4.366l0,-0.684c0,-0.203 -0.09,-0.366 -0.265,-0.494c-0.178,-0.125 -0.419,-0.187 -0.722,-0.187l-3.269,0c-0.656,0 -0.987,0.328 -0.987,0.984l0,0.685c0,1.875 0.597,3.571 1.787,5.09c1.188,1.519 2.888,2.735 5.091,3.647c2.203,0.913 4.719,1.369 7.556,1.369m40.128,0c4.303,0 7.735,-0.991 10.294,-2.966c2.556,-1.975 3.834,-4.606 3.834,-7.9c0,-2.328 -0.656,-4.228 -1.975,-5.697c-1.315,-1.468 -2.887,-2.584 -4.709,-3.343c-1.822,-0.76 -4.203,-1.544 -7.141,-2.354c-3.19,-0.912 -5.534,-1.825 -7.028,-2.734c-1.494,-0.912 -2.24,-2.228 -2.24,-3.953c0,-1.822 0.784,-3.253 2.356,-4.291c1.569,-1.037 3.647,-1.559 6.228,-1.559c2.784,0 5,0.584 6.647,1.747c1.647,1.165 2.469,2.609 2.469,4.331l0,0.456c0,0.357 0.331,0.532 0.987,0.532l3.116,0c0.659,0 0.987,-0.329 0.987,-0.988c0,-1.975 -0.581,-3.759 -1.747,-5.356c-1.165,-1.594 -2.825,-2.847 -4.975,-3.76c-2.153,-0.912 -4.622,-1.365 -7.406,-1.365c-4.156,0 -7.509,0.962 -10.069,2.884c-2.556,1.925 -3.834,4.51 -3.834,7.75c0,2.228 0.631,4.063 1.897,5.506c1.265,1.444 2.812,2.572 4.634,3.382c1.825,0.809 4.153,1.622 6.991,2.431c2.328,0.709 4.075,1.291 5.24,1.747c1.166,0.456 2.154,1.09 2.963,1.9c0.809,0.809 1.216,1.85 1.216,3.115c0,1.822 -0.81,3.332 -2.432,4.519c-1.618,1.191 -3.747,1.785 -6.381,1.785c-2.634,0 -4.812,-0.619 -6.531,-1.863c-1.722,-1.237 -2.585,-2.694 -2.585,-4.366l0,-0.684c0,-0.203 -0.087,-0.366 -0.265,-0.494c-0.178,-0.125 -0.419,-0.187 -0.722,-0.187l-3.266,0c-0.659,0 -0.987,0.328 -0.987,0.984l0,0.685c0,1.875 0.594,3.571 1.784,5.09c1.191,1.519 2.888,2.735 5.091,3.647c2.203,0.913 4.722,1.369 7.559,1.369m41.75,0.225c3.597,0 6.697,-0.935 9.306,-2.81c2.61,-1.875 4.419,-4.456 5.432,-7.75c0.709,-2.328 1.065,-5.443 1.065,-9.343c0,-3.8 -0.356,-6.913 -1.065,-9.344c-0.963,-3.191 -2.747,-5.722 -5.353,-7.597c-2.61,-1.872 -5.738,-2.812 -9.385,-2.812c-3.747,0 -6.925,0.94 -9.534,2.812c-2.606,1.875 -4.419,4.431 -5.431,7.672c-0.66,2.331 -0.988,5.422 -0.988,9.269c0,3.9 0.353,7.015 1.063,9.343c1.015,3.294 2.825,5.875 5.434,7.75c2.606,1.875 5.759,2.81 9.456,2.81m0,-4.71c-2.531,0 -4.672,-0.668 -6.419,-2.012c-1.746,-1.341 -2.9,-3.153 -3.456,-5.431c-0.406,-1.469 -0.606,-4.028 -0.606,-7.672c0,-3.647 0.2,-6.206 0.606,-7.675c0.606,-2.278 1.772,-4.091 3.494,-5.431c1.722,-1.341 3.8,-2.013 6.231,-2.013c2.531,0 4.672,0.672 6.419,2.013c1.747,1.34 2.897,3.153 3.456,5.431c0.403,1.469 0.606,4.028 0.606,7.675c0,3.494 -0.203,6.05 -0.606,7.672c-0.609,2.278 -1.775,4.09 -3.494,5.431c-1.721,1.344 -3.8,2.012 -6.231,2.012m44.95,-34.715c-2.128,0 -4.012,0.506 -5.659,1.515c-1.647,1.016 -3,2.435 -4.066,4.257c-0.1,0.153 -0.187,0.215 -0.265,0.19c-0.075,-0.025 -0.113,-0.14 -0.113,-0.343l0,-4.254c0,-0.656 -0.331,-0.987 -0.987,-0.987l-3.419,0c-0.66,0 -0.988,0.331 -0.988,0.987l0,36.466c0,0.659 0.328,0.988 0.988,0.988l3.419,0c0.656,0 0.987,-0.329 0.987,-0.988l0,-22.184c0,-2.835 0.859,-5.178 2.581,-7.028c1.722,-1.847 3.9,-2.819 6.535,-2.922c1.518,-0.05 2.759,0.075 3.722,0.378c0.659,0.203 1.065,0 1.215,-0.606l0.76,-3.344c0.153,-0.61 -0.025,-1.013 -0.532,-1.216c-1.112,-0.606 -2.506,-0.909 -4.178,-0.909m18.969,-6.535c1.216,0 2.203,-0.365 2.962,-1.103c0.76,-0.734 1.141,-1.681 1.141,-2.847c0,-1.165 -0.381,-2.103 -1.141,-2.812c-0.759,-0.706 -1.746,-1.063 -2.962,-1.063c-1.216,0 -2.203,0.357 -2.963,1.063c-0.759,0.709 -1.14,1.647 -1.14,2.812c0,1.166 0.381,2.113 1.14,2.847c0.76,0.738 1.747,1.103 2.963,1.103m-1.672,45.354l3.419,0c0.659,0 0.987,-0.329 0.987,-0.988l0,-36.466c0,-0.656 -0.328,-0.987 -0.987,-0.987l-3.419,0c-0.656,0 -0.987,0.331 -0.987,0.987l0,36.466c0,0.659 0.331,0.988 0.987,0.988m35.6,-38.972c-4.559,0 -7.953,1.518 -10.181,4.556c-0.05,0.153 -0.125,0.191 -0.228,0.116c-0.1,-0.075 -0.15,-0.191 -0.15,-0.341l0,-2.813c0,-0.656 -0.332,-0.987 -0.988,-0.987l-3.419,0c-0.659,0 -0.987,0.331 -0.987,0.987l0,36.466c0,0.659 0.328,0.988 0.987,0.988l3.419,0c0.656,0 0.988,-0.329 0.988,-0.988l0,-25.3c0.253,-2.378 1.228,-4.303 2.925,-5.772c1.697,-1.469 3.834,-2.203 6.418,-2.203c2.685,0 4.863,0.872 6.535,2.622c1.669,1.747 2.506,4.037 2.506,6.875l0,23.778c0,0.659 0.328,0.988 0.988,0.988l3.418,0c0.657,0 0.988,-0.329 0.988,-0.988l0,-24.844c0,-3.997 -1.203,-7.187 -3.61,-9.572c-2.406,-2.378 -5.609,-3.568 -9.609,-3.568" style="fill:#70a1af;fill-rule:nonzero;"/><path d="M0,355.246l9.419,0l0,-92.109l-9.419,0l0,92.109Zm23.606,0l9.419,0l0,-34.831l17.156,0l27.478,34.831l12.513,0l-28.122,-35.734c13.031,-3.097 21.156,-13.416 21.156,-27.735c0,-17.159 -11.869,-28.64 -29.412,-28.64l-30.188,0l0,92.109Zm9.419,-43.859l0,-39.219l20.769,0c11.868,0 19.609,7.869 19.609,19.609c0,11.738 -7.869,19.61 -19.609,19.61l-20.769,0Zm63.597,43.859l10.19,0l16.513,-36.638l39.606,0l16.513,36.638l10.19,0l-41.412,-92.109l-10.191,0l-41.409,92.109Zm62.309,-45.669l-31.606,0l15.866,-35.087l15.74,35.087Zm79.722,45.669l9.419,0l0,-34.572l9.028,-10.062l38.575,44.634l11.737,0l-44.118,-51.6l36.509,-40.509l-11.74,0l-39.991,43.475l0,-43.475l-9.419,0l0,92.109Zm79.078,0l9.419,0l0,-34.831l17.156,0l27.478,34.831l12.516,0l-28.125,-35.734c13.031,-3.097 21.159,-13.416 21.159,-27.735c0,-17.159 -11.868,-28.64 -29.415,-28.64l-30.188,0l0,92.109Zm9.419,-43.859l0,-39.219l20.769,0c11.869,0 19.609,7.869 19.609,19.609c0,11.738 -7.869,19.61 -19.609,19.61l-20.769,0Zm97.269,-60.247c3.097,0 5.803,-2.71 5.803,-6.063c0,-2.969 -2.706,-5.678 -5.803,-5.678c-3.356,0 -5.935,2.709 -5.935,5.678c0,3.353 2.579,6.063 5.935,6.063m24.897,0c3.097,0 5.806,-2.71 5.806,-6.063c0,-2.969 -2.709,-5.678 -5.806,-5.678c-3.353,0 -5.935,2.709 -5.935,5.678c0,3.353 2.582,6.063 5.935,6.063m-12.513,10.706c-26.447,0 -47.99,21.416 -47.99,46.7c0,26.319 21.543,47.731 47.99,47.731c26.447,0 47.991,-21.412 47.991,-47.731c0,-25.284 -21.544,-46.7 -47.991,-46.7m0,85.016c-21.287,0 -38.187,-17.029 -38.187,-38.316c0,-20.253 16.9,-37.281 38.187,-37.281c21.284,0 38.184,17.028 38.184,37.281c0,21.287 -16.9,38.316 -38.184,38.316m111.719,-64.891c-2.066,-11.869 -12.516,-20.253 -25.416,-20.253c-15.869,0 -26.447,10.706 -26.447,24.64c0,13.932 9.291,20.382 26.447,25.672c14.578,4.513 20.125,9.16 20.125,17.672c0,10.71 -8.9,17.288 -20.125,17.288c-9.934,0 -18.059,-6.322 -19.865,-15.222l-9.807,0c1.807,14.319 14.322,24.64 29.672,24.64c16.641,0 29.928,-10.578 29.928,-26.706c0,-16.125 -12.768,-22.831 -29.928,-28.25c-11.093,-3.484 -16.64,-7.097 -16.64,-15.094c0,-8 6.578,-15.221 16.64,-15.221c6.966,0 13.16,4.771 15.094,10.834l10.322,0Zm35.991,73.275l9.415,0l26.188,-78.047l26.059,78.047l9.419,0l30.831,-92.109l-9.416,0l-26.059,78.046l-26.191,-78.046l-9.415,0l-26.06,78.046l-26.187,-78.046l-9.419,0l30.835,92.109Zm92.237,0l10.191,0l16.512,-36.638l39.606,0l16.513,36.638l10.19,0l-41.409,-92.109l-10.194,0l-41.409,92.109Zm62.309,-45.669l-31.606,0l15.869,-35.087l15.737,35.087Zm41.022,45.669l9.419,0l0,-79.209l57.666,79.209l11.353,0l0,-92.109l-9.419,0l0,79.209l-57.666,-79.209l-11.353,0l0,92.109Zm138.166,1.162c12.384,0 23.734,-4.646 32.25,-12.387l0,11.225l9.419,0l0,-46.572l-9.419,0l0,20.772c-6.838,10.578 -18.706,17.544 -32.25,17.544c-21.288,0 -38.316,-17.028 -38.316,-38.316c0,-20.253 17.028,-37.281 38.316,-37.281c12.384,0 23.606,5.806 30.572,14.706l10.578,0c-8.253,-14.191 -23.219,-24.122 -41.15,-24.122c-26.447,0 -48.119,21.413 -48.119,46.697c0,26.319 21.672,47.734 48.119,47.734" style="fill:#27697e;fill-rule:nonzero;"/><path d="M648.723,113.682l0,-98.15c-25.359,16.887 -42.087,45.715 -42.087,78.465c0,16.922 4.494,32.775 12.306,46.497l29.781,-26.812Zm-23.356,36.615c6.466,8.647 14.353,16.172 23.356,22.169l0,-43.197l-23.356,21.028Z" style="fill:#27697e;fill-rule:nonzero;"/><path d="M795.081,94.231c0,-27.203 -11.594,-51.64 -30.032,-68.84l-66.365,59.753l67.134,77.231c17.994,-17.163 29.263,-41.316 29.263,-68.144m-134.407,8.797l94.879,-85.425c-15.435,-11.037 -34.282,-17.603 -54.704,-17.603c-15.412,0 -27.328,3.775 -40.175,10.337l0,92.691Zm28.985,-9.756l-28.985,26.097l0,58.756c12.847,6.559 24.763,10.337 40.175,10.337c20.844,0 40.041,-6.85 55.644,-18.306l-66.834,-76.884Z" style="fill:#6397af;fill-rule:nonzero;"/></svg>