<?xml version="1.0" encoding="UTF-8"?>
<!DOCTYPE svg PUBLIC "-//W3C//DTD SVG 1.1//EN" "http://www.w3.org/Graphics/SVG/1.1/DTD/svg11.dtd">
<svg width="375" height="74" viewBox="0 0 375 74" version="1.1" xmlns="http://www.w3.org/2000/svg" xmlns:xlink="http://www.w3.org/1999/xlink" xml:space="preserve" xmlns:serif="http://www.serif.com/" style="fill-rule:evenodd;clip-rule:evenodd;stroke-linejoin:round;stroke-miterlimit:1.41421;">
  <g id="logo">
    <path d="M15.66,59.607l0,2.734c0,2.552 -0.701,3.85 -4.532,3.85l-3.827,0c-3.137,0 -4.476,-1.159 -4.476,-3.876l0,-2.652c0,-3.142 1.745,-3.74 4.969,-3.74l3.171,0c3.182,0.001 4.695,0.553 4.695,3.684m-4.886,-5.883l-3.582,0c-2.454,0 -3.812,0.536 -4.367,1.702l0,-7.335l-2.64,0l0,20.081l2.475,0l0,-1.85c0.796,1.358 2.5,2.07 4.969,2.07l3.281,0c3.654,0 7.39,-0.716 7.39,-6.023l0,-2.46c0,-4.624 -1.899,-6.185 -7.526,-6.185" style="fill:#fff;fill-rule:nonzero;"/>
    <path d="M36.334,62.014c0,3.082 -0.998,4.177 -6.609,4.177l-0.602,0c-4.628,0 -4.996,-1.407 -4.996,-3.248l0,-9l-2.64,0l0,9.573c0,1.821 0.772,4.875 5.941,4.875l3.528,0c2.726,0 4.636,-0.407 5.542,-2.292l0,2.073l2.476,0l0,-14.23l-2.64,0l0,8.072Z" style="fill:#fff;fill-rule:nonzero;"/>
    <rect x="43.995" y="48.091" width="2.64" height="20.081" style="fill:#fff;"/>
    <rect x="51.871" y="48.091" width="2.639" height="2.856" style="fill:#fff;"/>
    <rect x="51.871" y="53.943" width="2.639" height="14.23" style="fill:#fff;"/>
    <path d="M73.703,63.41c0,1.872 -1.268,2.782 -3.875,2.782l-3.965,0c-2.769,0 -4.613,-0.627 -4.613,-3.684l0,-2.925c0,-3.378 1.963,-3.657 4.149,-3.657l4.319,0c2.244,0 3.739,0.464 3.739,2.726l0,0.473l2.476,0l0,-0.526c0,-3.28 -2.042,-4.873 -6.243,-4.873l-3.937,0c-3.71,0 -7.143,0.7 -7.143,5.775l0,3.117c0,3.779 2.073,5.776 5.996,5.776l5.303,0c4.452,0 6.27,-1.459 6.27,-5.038l0,-0.554l-2.476,0l0,0.608Z" style="fill:#fff;fill-rule:nonzero;"/>
    <path d="M95.078,58.623l0,0.786l-12.852,0c0.225,-2.926 1.005,-3.485 4.657,-3.485l3.444,0c3.926,0 4.751,1.468 4.751,2.699m-4.75,-4.899l-3.772,0c-3.452,0 -6.98,0.686 -6.98,5.776l0,3.034c0,5.192 3.584,5.859 6.706,5.859l4.265,0c3.339,0 7.17,-0.489 7.17,-4.301l0,-0.415l-2.63,0l-0.009,0.135c-0.13,2.021 -1.2,2.38 -4.148,2.38l-3.227,0c-4.206,0 -5.488,-0.9 -5.488,-3.849l0,-0.73l15.502,0l0,-1.702c0,-5.452 -3.735,-6.187 -7.389,-6.187" style="fill:#fff;fill-rule:nonzero;"/>
    <path d="M117.3,54.164l-0.224,-0.221l-3.803,0.023l-8.04,5.253l-1.005,0l0,-11.128l-2.639,0l0,20.083l2.639,0l0,-6.757l0.788,-0.02l10.169,6.777l3.664,0l0.279,-0.222l-11.419,-7.629l9.591,-6.159Z" style="fill:#fff;fill-rule:nonzero;"/>
    <path d="M130.523,54.194l-1.914,0l0,5.961l-5.96,0l0,1.915l5.96,0l0,5.959l1.914,0l0,-5.959l5.96,0l0,-1.915l-5.96,0l0,-5.961Z" style="fill:#fff;fill-rule:nonzero;"/>
    <rect x="144.578" y="48.091" width="2.639" height="2.856" style="fill:#fff;"/>
    <rect x="144.578" y="53.943" width="2.639" height="14.23" style="fill:#fff;"/>
    <path d="M164.437,53.724l-3.527,0c-2.727,0 -4.637,0.407 -5.543,2.289l0,-2.07l-2.476,0l0,14.23l2.64,0l0,-8.072c0,-3.082 0.999,-4.177 6.61,-4.177l0.601,0c4.628,0 4.996,1.408 4.996,3.247l0,9.002l2.639,0l0,-9.576c-0.001,-1.821 -0.771,-4.873 -5.94,-4.873" style="fill:#fff;fill-rule:nonzero;"/>
    <path d="M176.87,58.735c0.022,-1.943 1.26,-2.811 4.011,-2.811l4.785,0c1.457,0 2.481,0.324 3.134,0.991c0.649,0.661 0.936,1.656 0.905,3.13l0,1.695c0,2.49 -1.372,3.603 -4.45,3.603l-4.537,0c-1.479,0 -2.399,-0.263 -2.983,-0.852c-0.604,-0.61 -0.878,-1.622 -0.865,-3.189l0,-2.567Zm13,-2.781c-0.932,-1.986 -2.818,-2.231 -4.204,-2.231l-5.003,0c-1.591,0 -6.433,0 -6.433,5.776l0,2.324c0,3.743 2.073,5.722 5.995,5.722l4.84,0c3.027,0 4.13,-0.706 4.64,-1.8l0,1.575c0,3.683 -1.862,3.683 -6.362,3.683l-2.298,0c-2.589,0 -3.902,-0.734 -3.902,-2.18l0,-0.527l-2.475,0l0,0.607c0,2.079 1.475,4.3 5.612,4.3l5.304,0c3.084,0 6.761,-0.903 6.761,-5.202l0,-14.06l-2.475,0l0,2.013Z" style="fill:#fff;fill-rule:nonzero;"/>
    <path d="M211.831,58.623l0,0.786l-12.852,0c0.225,-2.926 1.004,-3.485 4.657,-3.485l3.446,0c3.926,0 4.749,1.468 4.749,2.699m-4.749,-4.899l-3.773,0c-3.452,0 -6.979,0.686 -6.979,5.776l0,3.034c0,5.192 3.583,5.859 6.705,5.859l4.264,0c3.34,0 7.171,-0.489 7.171,-4.301l0,-0.415l-2.631,0l-0.009,0.135c-0.129,2.021 -1.198,2.38 -4.148,2.38l-3.225,0c-4.207,0 -5.488,-0.9 -5.488,-3.849l0,-0.73l15.501,0l0,-1.702c0.001,-5.452 -3.734,-6.187 -7.388,-6.187" style="fill:#fff;fill-rule:nonzero;"/>
    <path d="M229.892,53.724l-3.528,0c-2.726,0 -4.637,0.407 -5.542,2.289l0,-2.07l-2.476,0l0,14.23l2.639,0l0,-8.072c0,-3.082 0.999,-4.177 6.611,-4.177l0.599,0c4.628,0 4.996,1.408 4.996,3.247l0,9.002l2.64,0l0,-9.576c0.001,-1.821 -0.771,-4.873 -5.939,-4.873" style="fill:#fff;fill-rule:nonzero;"/>
    <rect x="240.742" y="48.091" width="2.639" height="2.856" style="fill:#fff;"/>
    <rect x="240.742" y="53.943" width="2.639" height="14.23" style="fill:#fff;"/>
    <path d="M263.273,58.623l0,0.786l-12.852,0c0.225,-2.926 1.004,-3.485 4.657,-3.485l3.446,0c3.924,0 4.749,1.468 4.749,2.699m-4.75,-4.899l-3.773,0c-3.451,0 -6.978,0.686 -6.978,5.776l0,3.034c0,5.192 3.583,5.859 6.705,5.859l4.264,0c3.338,0 7.171,-0.489 7.171,-4.301l0,-0.415l-2.631,0l-0.009,0.135c-0.129,2.021 -1.198,2.38 -4.148,2.38l-3.225,0c-4.207,0 -5.488,-0.9 -5.488,-3.849l0,-0.73l15.501,0l0,-1.702c0,-5.452 -3.734,-6.187 -7.389,-6.187" style="fill:#fff;fill-rule:nonzero;"/>
    <path d="M284.561,62.014c0,3.082 -0.998,4.177 -6.611,4.177l-0.601,0c-4.627,0 -4.995,-1.407 -4.995,-3.248l0,-9l-2.64,0l0,9.573c0,1.821 0.773,4.875 5.941,4.875l3.526,0c2.727,0 4.636,-0.407 5.542,-2.292l0,2.073l2.475,0l0,-14.23l-2.639,0l0,8.072l0.002,0Z" style="fill:#fff;fill-rule:nonzero;"/>
    <path d="M300.595,53.724l-2.216,0c-2.025,0 -3.448,0.681 -4.175,1.96l0,-1.741l-2.475,0l0,14.23l2.64,0l0,-9.002c0,-1.498 0.929,-3.247 3.546,-3.247l1.45,0c4.129,0 4.75,0.504 4.75,3.849l0,0.744l2.477,0l0,-1.811c-0.002,-3.633 -1.628,-4.982 -5.997,-4.982" style="fill:#fff;fill-rule:nonzero;"/>
    <path d="M325.081,58.623l0,0.786l-12.85,0c0.223,-2.927 1.003,-3.485 4.655,-3.485l3.446,0c3.926,0 4.749,1.468 4.749,2.699m2.639,2.988l0,-1.701c0,-5.451 -3.735,-6.187 -7.389,-6.187l-3.773,0c-3.451,0 -6.978,0.687 -6.978,5.777l0,3.034c0,5.193 3.583,5.858 6.705,5.858l4.264,0c3.339,0 7.171,-0.488 7.171,-4.299l0,-0.416l-2.631,0l-0.007,0.135c-0.131,2.021 -1.2,2.38 -4.15,2.38l-3.225,0c-4.205,0 -5.488,-0.9 -5.488,-3.849l0,-0.73l15.501,0l0,-0.002Z" style="fill:#fff;fill-rule:nonzero;"/>
    <path d="M325.345,8.062c-21.898,0 -40.772,9.92 -49.47,24.23l11.012,0c6.951,-12.21 21.558,-20.622 38.458,-20.622l0,-3.608Z" style="fill:#9a9b9f;fill-rule:nonzero;"/>
    <path d="M337.505,9.11l0,-8.313l-9.731,0l0,31.495l47.041,0c-7.036,-11.579 -20.738,-20.28 -37.31,-23.182Zm0,17.991l0,-13.926c9.259,2.352 17.19,7.337 22.67,13.926l-22.67,0Z" style="fill:#9a9b9f;fill-rule:nonzero;"/>
    <path d="M15.66,59.607l0,2.734c0,2.552 -0.701,3.85 -4.532,3.85l-3.827,0c-3.137,0 -4.476,-1.159 -4.476,-3.876l0,-2.652c0,-3.142 1.745,-3.74 4.969,-3.74l3.171,0c3.182,0.001 4.695,0.553 4.695,3.684m-4.886,-5.883l-3.582,0c-2.454,0 -3.812,0.536 -4.367,1.702l0,-7.335l-2.64,0l0,20.081l2.475,0l0,-1.85c0.796,1.358 2.5,2.07 4.969,2.07l3.281,0c3.654,0 7.39,-0.716 7.39,-6.023l0,-2.46c0,-4.624 -1.899,-6.185 -7.526,-6.185" style="fill:#fff;fill-rule:nonzero;"/>
    <path d="M36.334,62.014c0,3.082 -0.998,4.177 -6.609,4.177l-0.602,0c-4.628,0 -4.996,-1.407 -4.996,-3.248l0,-9l-2.64,0l0,9.573c0,1.821 0.772,4.875 5.941,4.875l3.528,0c2.726,0 4.636,-0.407 5.542,-2.292l0,2.073l2.476,0l0,-14.23l-2.64,0l0,8.072Z" style="fill:#fff;fill-rule:nonzero;"/>
    <rect x="43.995" y="48.091" width="2.64" height="20.081" style="fill:#fff;"/>
    <rect x="51.871" y="48.091" width="2.639" height="2.856" style="fill:#fff;"/>
    <rect x="51.871" y="53.943" width="2.639" height="14.23" style="fill:#fff;"/>
    <path d="M73.703,63.41c0,1.872 -1.268,2.782 -3.875,2.782l-3.965,0c-2.769,0 -4.613,-0.627 -4.613,-3.684l0,-2.925c0,-3.378 1.963,-3.657 4.149,-3.657l4.319,0c2.244,0 3.739,0.464 3.739,2.726l0,0.473l2.476,0l0,-0.526c0,-3.28 -2.042,-4.873 -6.243,-4.873l-3.937,0c-3.71,0 -7.143,0.7 -7.143,5.775l0,3.117c0,3.779 2.073,5.776 5.996,5.776l5.303,0c4.452,0 6.27,-1.459 6.27,-5.038l0,-0.554l-2.476,0l0,0.608Z" style="fill:#fff;fill-rule:nonzero;"/>
    <path d="M95.078,58.623l0,0.786l-12.852,0c0.225,-2.926 1.005,-3.485 4.657,-3.485l3.444,0c3.926,0 4.751,1.468 4.751,2.699m-4.75,-4.899l-3.772,0c-3.452,0 -6.98,0.686 -6.98,5.776l0,3.034c0,5.192 3.584,5.859 6.706,5.859l4.265,0c3.339,0 7.17,-0.489 7.17,-4.301l0,-0.415l-2.63,0l-0.009,0.135c-0.13,2.021 -1.2,2.38 -4.148,2.38l-3.227,0c-4.206,0 -5.488,-0.9 -5.488,-3.849l0,-0.73l15.502,0l0,-1.702c0,-5.452 -3.735,-6.187 -7.389,-6.187" style="fill:#fff;fill-rule:nonzero;"/>
    <path d="M117.3,54.164l-0.224,-0.221l-3.803,0.023l-8.04,5.253l-1.005,0l0,-11.128l-2.639,0l0,20.083l2.639,0l0,-6.757l0.788,-0.02l10.169,6.777l3.664,0l0.279,-0.222l-11.419,-7.629l9.591,-6.159Z" style="fill:#fff;fill-rule:nonzero;"/>
    <path d="M130.523,54.194l-1.914,0l0,5.961l-5.96,0l0,1.915l5.96,0l0,5.959l1.914,0l0,-5.959l5.96,0l0,-1.915l-5.96,0l0,-5.961Z" style="fill:#fff;fill-rule:nonzero;"/>
    <rect x="144.578" y="48.091" width="2.639" height="2.856" style="fill:#fff;"/>
    <rect x="144.578" y="53.943" width="2.639" height="14.23" style="fill:#fff;"/>
    <path d="M164.437,53.724l-3.527,0c-2.727,0 -4.637,0.407 -5.543,2.289l0,-2.07l-2.476,0l0,14.23l2.64,0l0,-8.072c0,-3.082 0.999,-4.177 6.61,-4.177l0.601,0c4.628,0 4.996,1.408 4.996,3.247l0,9.002l2.639,0l0,-9.576c-0.001,-1.821 -0.771,-4.873 -5.94,-4.873" style="fill:#fff;fill-rule:nonzero;"/>
    <path d="M176.87,58.735c0.022,-1.943 1.26,-2.811 4.011,-2.811l4.785,0c1.457,0 2.481,0.324 3.134,0.991c0.649,0.661 0.936,1.656 0.905,3.13l0,1.695c0,2.49 -1.372,3.603 -4.45,3.603l-4.537,0c-1.479,0 -2.399,-0.263 -2.983,-0.852c-0.604,-0.61 -0.878,-1.622 -0.865,-3.189l0,-2.567Zm13,-2.781c-0.932,-1.986 -2.818,-2.231 -4.204,-2.231l-5.003,0c-1.591,0 -6.433,0 -6.433,5.776l0,2.324c0,3.743 2.073,5.722 5.995,5.722l4.84,0c3.027,0 4.13,-0.706 4.64,-1.8l0,1.575c0,3.683 -1.862,3.683 -6.362,3.683l-2.298,0c-2.589,0 -3.902,-0.734 -3.902,-2.18l0,-0.527l-2.475,0l0,0.607c0,2.079 1.475,4.3 5.612,4.3l5.304,0c3.084,0 6.761,-0.903 6.761,-5.202l0,-14.06l-2.475,0l0,2.013Z" style="fill:#fff;fill-rule:nonzero;"/>
    <path d="M211.831,58.623l0,0.786l-12.852,0c0.225,-2.926 1.004,-3.485 4.657,-3.485l3.446,0c3.926,0 4.749,1.468 4.749,2.699m-4.749,-4.899l-3.773,0c-3.452,0 -6.979,0.686 -6.979,5.776l0,3.034c0,5.192 3.583,5.859 6.705,5.859l4.264,0c3.34,0 7.171,-0.489 7.171,-4.301l0,-0.415l-2.631,0l-0.009,0.135c-0.129,2.021 -1.198,2.38 -4.148,2.38l-3.225,0c-4.207,0 -5.488,-0.9 -5.488,-3.849l0,-0.73l15.501,0l0,-1.702c0.001,-5.452 -3.734,-6.187 -7.388,-6.187" style="fill:#fff;fill-rule:nonzero;"/>
    <path d="M229.892,53.724l-3.528,0c-2.726,0 -4.637,0.407 -5.542,2.289l0,-2.07l-2.476,0l0,14.23l2.639,0l0,-8.072c0,-3.082 0.999,-4.177 6.611,-4.177l0.599,0c4.628,0 4.996,1.408 4.996,3.247l0,9.002l2.64,0l0,-9.576c0.001,-1.821 -0.771,-4.873 -5.939,-4.873" style="fill:#fff;fill-rule:nonzero;"/>
    <rect x="240.742" y="48.091" width="2.639" height="2.856" style="fill:#fff;"/>
    <rect x="240.742" y="53.943" width="2.639" height="14.23" style="fill:#fff;"/>
    <path d="M263.273,58.623l0,0.786l-12.852,0c0.225,-2.926 1.004,-3.485 4.657,-3.485l3.446,0c3.924,0 4.749,1.468 4.749,2.699m-4.75,-4.899l-3.773,0c-3.451,0 -6.978,0.686 -6.978,5.776l0,3.034c0,5.192 3.583,5.859 6.705,5.859l4.264,0c3.338,0 7.171,-0.489 7.171,-4.301l0,-0.415l-2.631,0l-0.009,0.135c-0.129,2.021 -1.198,2.38 -4.148,2.38l-3.225,0c-4.207,0 -5.488,-0.9 -5.488,-3.849l0,-0.73l15.501,0l0,-1.702c0,-5.452 -3.734,-6.187 -7.389,-6.187" style="fill:#fff;fill-rule:nonzero;"/>
    <path d="M284.561,62.014c0,3.082 -0.998,4.177 -6.611,4.177l-0.601,0c-4.627,0 -4.995,-1.407 -4.995,-3.248l0,-9l-2.64,0l0,9.573c0,1.821 0.773,4.875 5.941,4.875l3.526,0c2.727,0 4.636,-0.407 5.542,-2.292l0,2.073l2.475,0l0,-14.23l-2.639,0l0,8.072l0.002,0Z" style="fill:#fff;fill-rule:nonzero;"/>
    <path d="M300.595,53.724l-2.216,0c-2.025,0 -3.448,0.681 -4.175,1.96l0,-1.741l-2.475,0l0,14.23l2.64,0l0,-9.002c0,-1.498 0.929,-3.247 3.546,-3.247l1.45,0c4.129,0 4.75,0.504 4.75,3.849l0,0.744l2.477,0l0,-1.811c-0.002,-3.633 -1.628,-4.982 -5.997,-4.982" style="fill:#fff;fill-rule:nonzero;"/>
    <path d="M325.081,58.623l0,0.786l-12.85,0c0.223,-2.927 1.003,-3.485 4.655,-3.485l3.446,0c3.926,0 4.749,1.468 4.749,2.699m2.639,2.988l0,-1.701c0,-5.451 -3.735,-6.187 -7.389,-6.187l-3.773,0c-3.451,0 -6.978,0.687 -6.978,5.777l0,3.034c0,5.193 3.583,5.858 6.705,5.858l4.264,0c3.339,0 7.171,-0.488 7.171,-4.299l0,-0.416l-2.631,0l-0.007,0.135c-0.131,2.021 -1.2,2.38 -4.15,2.38l-3.225,0c-4.205,0 -5.488,-0.9 -5.488,-3.849l0,-0.73l15.501,0l0,-0.002Z" style="fill:#fff;fill-rule:nonzero;"/>
    <path d="M325.345,8.062c-21.898,0 -40.772,9.92 -49.47,24.23l11.012,0c6.951,-12.21 21.558,-20.622 38.458,-20.622l0,-3.608Z" style="fill:#9a9b9f;fill-rule:nonzero;"/>
    <path d="M337.505,9.11l0,-8.313l-9.731,0l0,31.495l47.041,0c-7.036,-11.579 -20.738,-20.28 -37.31,-23.182Zm0,17.991l0,-13.926c9.259,2.352 17.19,7.337 22.67,13.926l-22.67,0Z" style="fill:#9a9b9f;fill-rule:nonzero;"/>
    <path d="M15.66,59.607l0,2.734c0,2.552 -0.701,3.85 -4.532,3.85l-3.827,0c-3.137,0 -4.476,-1.159 -4.476,-3.876l0,-2.652c0,-3.142 1.745,-3.74 4.969,-3.74l3.171,0c3.182,0.001 4.695,0.553 4.695,3.684m-4.886,-5.883l-3.582,0c-2.454,0 -3.812,0.536 -4.367,1.702l0,-7.335l-2.64,0l0,20.081l2.475,0l0,-1.85c0.796,1.358 2.5,2.07 4.969,2.07l3.281,0c3.654,0 7.39,-0.716 7.39,-6.023l0,-2.46c0,-4.624 -1.899,-6.185 -7.526,-6.185" style="fill:#fff;fill-rule:nonzero;"/>
    <path d="M36.334,62.014c0,3.082 -0.998,4.177 -6.609,4.177l-0.602,0c-4.628,0 -4.996,-1.407 -4.996,-3.248l0,-9l-2.64,0l0,9.573c0,1.821 0.772,4.875 5.941,4.875l3.528,0c2.726,0 4.636,-0.407 5.542,-2.292l0,2.073l2.476,0l0,-14.23l-2.64,0l0,8.072Z" style="fill:#fff;fill-rule:nonzero;"/>
    <rect x="43.995" y="48.091" width="2.64" height="20.081" style="fill:#fff;"/>
    <rect x="51.871" y="48.091" width="2.639" height="2.856" style="fill:#fff;"/>
    <rect x="51.871" y="53.943" width="2.639" height="14.23" style="fill:#fff;"/>
    <path d="M73.703,63.41c0,1.872 -1.268,2.782 -3.875,2.782l-3.965,0c-2.769,0 -4.613,-0.627 -4.613,-3.684l0,-2.925c0,-3.378 1.963,-3.657 4.149,-3.657l4.319,0c2.244,0 3.739,0.464 3.739,2.726l0,0.473l2.476,0l0,-0.526c0,-3.28 -2.042,-4.873 -6.243,-4.873l-3.937,0c-3.71,0 -7.143,0.7 -7.143,5.775l0,3.117c0,3.779 2.073,5.776 5.996,5.776l5.303,0c4.452,0 6.27,-1.459 6.27,-5.038l0,-0.554l-2.476,0l0,0.608Z" style="fill:#fff;fill-rule:nonzero;"/>
    <path d="M95.078,58.623l0,0.786l-12.852,0c0.225,-2.926 1.005,-3.485 4.657,-3.485l3.444,0c3.926,0 4.751,1.468 4.751,2.699m-4.75,-4.899l-3.772,0c-3.452,0 -6.98,0.686 -6.98,5.776l0,3.034c0,5.192 3.584,5.859 6.706,5.859l4.265,0c3.339,0 7.17,-0.489 7.17,-4.301l0,-0.415l-2.63,0l-0.009,0.135c-0.13,2.021 -1.2,2.38 -4.148,2.38l-3.227,0c-4.206,0 -5.488,-0.9 -5.488,-3.849l0,-0.73l15.502,0l0,-1.702c0,-5.452 -3.735,-6.187 -7.389,-6.187" style="fill:#fff;fill-rule:nonzero;"/>
    <path d="M117.3,54.164l-0.224,-0.221l-3.803,0.023l-8.04,5.253l-1.005,0l0,-11.128l-2.639,0l0,20.083l2.639,0l0,-6.757l0.788,-0.02l10.169,6.777l3.664,0l0.279,-0.222l-11.419,-7.629l9.591,-6.159Z" style="fill:#fff;fill-rule:nonzero;"/>
    <path d="M130.523,54.194l-1.914,0l0,5.961l-5.96,0l0,1.915l5.96,0l0,5.959l1.914,0l0,-5.959l5.96,0l0,-1.915l-5.96,0l0,-5.961Z" style="fill:#fff;fill-rule:nonzero;"/>
    <rect x="144.578" y="48.091" width="2.639" height="2.856" style="fill:#fff;"/>
    <rect x="144.578" y="53.943" width="2.639" height="14.23" style="fill:#fff;"/>
    <path d="M164.437,53.724l-3.527,0c-2.727,0 -4.637,0.407 -5.543,2.289l0,-2.07l-2.476,0l0,14.23l2.64,0l0,-8.072c0,-3.082 0.999,-4.177 6.61,-4.177l0.601,0c4.628,0 4.996,1.408 4.996,3.247l0,9.002l2.639,0l0,-9.576c-0.001,-1.821 -0.771,-4.873 -5.94,-4.873" style="fill:#fff;fill-rule:nonzero;"/>
    <path d="M176.87,58.735c0.022,-1.943 1.26,-2.811 4.011,-2.811l4.785,0c1.457,0 2.481,0.324 3.134,0.991c0.649,0.661 0.936,1.656 0.905,3.13l0,1.695c0,2.49 -1.372,3.603 -4.45,3.603l-4.537,0c-1.479,0 -2.399,-0.263 -2.983,-0.852c-0.604,-0.61 -0.878,-1.622 -0.865,-3.189l0,-2.567Zm13,-2.781c-0.932,-1.986 -2.818,-2.231 -4.204,-2.231l-5.003,0c-1.591,0 -6.433,0 -6.433,5.776l0,2.324c0,3.743 2.073,5.722 5.995,5.722l4.84,0c3.027,0 4.13,-0.706 4.64,-1.8l0,1.575c0,3.683 -1.862,3.683 -6.362,3.683l-2.298,0c-2.589,0 -3.902,-0.734 -3.902,-2.18l0,-0.527l-2.475,0l0,0.607c0,2.079 1.475,4.3 5.612,4.3l5.304,0c3.084,0 6.761,-0.903 6.761,-5.202l0,-14.06l-2.475,0l0,2.013Z" style="fill:#fff;fill-rule:nonzero;"/>
    <path d="M211.831,58.623l0,0.786l-12.852,0c0.225,-2.926 1.004,-3.485 4.657,-3.485l3.446,0c3.926,0 4.749,1.468 4.749,2.699m-4.749,-4.899l-3.773,0c-3.452,0 -6.979,0.686 -6.979,5.776l0,3.034c0,5.192 3.583,5.859 6.705,5.859l4.264,0c3.34,0 7.171,-0.489 7.171,-4.301l0,-0.415l-2.631,0l-0.009,0.135c-0.129,2.021 -1.198,2.38 -4.148,2.38l-3.225,0c-4.207,0 -5.488,-0.9 -5.488,-3.849l0,-0.73l15.501,0l0,-1.702c0.001,-5.452 -3.734,-6.187 -7.388,-6.187" style="fill:#fff;fill-rule:nonzero;"/>
    <path d="M229.892,53.724l-3.528,0c-2.726,0 -4.637,0.407 -5.542,2.289l0,-2.07l-2.476,0l0,14.23l2.639,0l0,-8.072c0,-3.082 0.999,-4.177 6.611,-4.177l0.599,0c4.628,0 4.996,1.408 4.996,3.247l0,9.002l2.64,0l0,-9.576c0.001,-1.821 -0.771,-4.873 -5.939,-4.873" style="fill:#fff;fill-rule:nonzero;"/>
    <rect x="240.742" y="48.091" width="2.639" height="2.856" style="fill:#fff;"/>
    <rect x="240.742" y="53.943" width="2.639" height="14.23" style="fill:#fff;"/>
    <path d="M263.273,58.623l0,0.786l-12.852,0c0.225,-2.926 1.004,-3.485 4.657,-3.485l3.446,0c3.924,0 4.749,1.468 4.749,2.699m-4.75,-4.899l-3.773,0c-3.451,0 -6.978,0.686 -6.978,5.776l0,3.034c0,5.192 3.583,5.859 6.705,5.859l4.264,0c3.338,0 7.171,-0.489 7.171,-4.301l0,-0.415l-2.631,0l-0.009,0.135c-0.129,2.021 -1.198,2.38 -4.148,2.38l-3.225,0c-4.207,0 -5.488,-0.9 -5.488,-3.849l0,-0.73l15.501,0l0,-1.702c0,-5.452 -3.734,-6.187 -7.389,-6.187" style="fill:#fff;fill-rule:nonzero;"/>
    <path d="M284.561,62.014c0,3.082 -0.998,4.177 -6.611,4.177l-0.601,0c-4.627,0 -4.995,-1.407 -4.995,-3.248l0,-9l-2.64,0l0,9.573c0,1.821 0.773,4.875 5.941,4.875l3.526,0c2.727,0 4.636,-0.407 5.542,-2.292l0,2.073l2.475,0l0,-14.23l-2.639,0l0,8.072l0.002,0Z" style="fill:#fff;fill-rule:nonzero;"/>
    <path d="M300.595,53.724l-2.216,0c-2.025,0 -3.448,0.681 -4.175,1.96l0,-1.741l-2.475,0l0,14.23l2.64,0l0,-9.002c0,-1.498 0.929,-3.247 3.546,-3.247l1.45,0c4.129,0 4.75,0.504 4.75,3.849l0,0.744l2.477,0l0,-1.811c-0.002,-3.633 -1.628,-4.982 -5.997,-4.982" style="fill:#fff;fill-rule:nonzero;"/>
    <path d="M325.081,58.623l0,0.786l-12.85,0c0.223,-2.927 1.003,-3.485 4.655,-3.485l3.446,0c3.926,0 4.749,1.468 4.749,2.699m2.639,2.988l0,-1.701c0,-5.451 -3.735,-6.187 -7.389,-6.187l-3.773,0c-3.451,0 -6.978,0.687 -6.978,5.777l0,3.034c0,5.193 3.583,5.858 6.705,5.858l4.264,0c3.339,0 7.171,-0.488 7.171,-4.299l0,-0.416l-2.631,0l-0.007,0.135c-0.131,2.021 -1.2,2.38 -4.15,2.38l-3.225,0c-4.205,0 -5.488,-0.9 -5.488,-3.849l0,-0.73l15.501,0l0,-0.002Z" style="fill:#fff;fill-rule:nonzero;"/>
    <path d="M325.345,8.062c-21.898,0 -40.772,9.92 -49.47,24.23l11.012,0c6.951,-12.21 21.558,-20.622 38.458,-20.622l0,-3.608Z" style="fill:#9a9b9f;fill-rule:nonzero;"/>
    <path d="M337.505,9.11l0,-8.313l-9.731,0l0,31.495l47.041,0c-7.036,-11.579 -20.738,-20.28 -37.31,-23.182Zm0,17.991l0,-13.926c9.259,2.352 17.19,7.337 22.67,13.926l-22.67,0Z" style="fill:#9a9b9f;fill-rule:nonzero;"/>
  </g>
</svg>
