<?xml version="1.0" encoding="utf-8"?>
<!-- Generator: Adobe Illustrator 19.2.1, SVG Export Plug-In . SVG Version: 6.00 Build 0)  -->
<svg version="1.1" id="Ebene_1" xmlns="http://www.w3.org/2000/svg" xmlns:xlink="http://www.w3.org/1999/xlink" x="0px" y="0px"
	 viewBox="0 0 18.5 19.4" style="enable-background:new 0 0 18.5 19.4;" xml:space="preserve">
<style type="text/css">
	.st0{fill:#FFFFFF;}
</style>
<g>
	<path id="Lupe" class="st0" d="M15.7,13.9l-4.4-4.6c0.6-1,0.9-2.1,0.9-3.2C12.2,2.7,9.4,0,6.1,0S0,2.7,0,6.1s2.7,6.1,6.1,6.1
		c1,0,2.1-0.3,3-0.8l4.4,4.6L15.7,13.9z M3,6.1C3,4.4,4.4,3,6.1,3s3.1,1.4,3.1,3.1c0,0.9-0.4,1.8-1.1,2.4c-0.6,0.5-1.2,0.7-2,0.7
		C4.4,9.2,3,7.8,3,6.1z"/>
</g>
</svg>
