<?xml version="1.0" encoding="utf-8"?>
<!-- Generator: Adobe Illustrator 22.1.0, SVG Export Plug-In . SVG Version: 6.00 Build 0)  -->
<svg version="1.1" id="Ebene_1" xmlns="http://www.w3.org/2000/svg" xmlns:xlink="http://www.w3.org/1999/xlink" x="0px" y="0px"
	 width="148.026px" height="138.208px" viewBox="0 0 148.026 138.208" enable-background="new 0 0 148.026 138.208"
	 xml:space="preserve">
<path fill="#FFFFFF" d="M59.966,67.637h7.855v3.637H51.019c1.503-1.527,2.958-3,4.364-4.419c1.406-1.418,2.655-2.794,3.746-4.127
	c1.091-1.333,1.97-2.631,2.637-3.892c0.667-1.261,1-2.473,1-3.637c0-0.775-0.14-1.455-0.418-2.036
	c-0.279-0.582-0.625-1.061-1.037-1.437c-0.413-0.376-0.861-0.661-1.345-0.855c-0.485-0.193-0.934-0.291-1.346-0.291
	c-0.849,0-1.546,0.152-2.091,0.455c-0.545,0.304-0.982,0.661-1.309,1.073s-0.552,0.849-0.673,1.309
	c-0.122,0.461-0.182,0.85-0.182,1.164c0,0.8,0.127,1.509,0.382,2.127c0.254,0.618,0.612,1.158,1.073,1.619l-2.218,2.291
	c-0.485-0.242-0.909-0.612-1.273-1.109s-0.673-1.036-0.927-1.618c-0.255-0.582-0.449-1.164-0.582-1.746
	c-0.134-0.582-0.2-1.103-0.2-1.563c0-0.97,0.176-1.915,0.527-2.837c0.351-0.921,0.867-1.733,1.546-2.437
	c0.678-0.703,1.515-1.267,2.509-1.691c0.994-0.424,2.133-0.636,3.418-0.636c1.188,0,2.273,0.212,3.255,0.636
	c0.982,0.425,1.818,0.995,2.509,1.71s1.224,1.545,1.6,2.491c0.375,0.945,0.563,1.927,0.563,2.945c0,1.164-0.176,2.291-0.527,3.382
	c-0.352,1.092-0.824,2.164-1.418,3.219c-0.595,1.055-1.291,2.104-2.091,3.146C61.711,65.552,60.862,66.595,59.966,67.637z"/>
<path fill="#FFFFFF" d="M69.13,65.165c1.115-1.455,2.285-2.946,3.509-4.474c1.224-1.527,2.455-3.066,3.691-4.618
	s2.467-3.092,3.691-4.619c1.224-1.527,2.395-3.019,3.51-4.473v14.583h3.6v3.601h-3.6v6.109h-3.746v-6.109H69.13z M79.786,57.09
	c-0.194,0.243-0.449,0.564-0.764,0.964c-0.315,0.4-0.637,0.818-0.964,1.255s-0.649,0.861-0.964,1.272
	c-0.315,0.413-0.558,0.74-0.727,0.982h3.418V57.09z"/>
<path fill="#FFFFFF" d="M89.422,71.965c1.746-4.68,3.461-9.328,5.146-13.947c1.684-4.618,3.4-9.268,5.146-13.946h3.745
	L93.205,71.965H89.422z"/>
<path fill="#FFFFFF" d="M105.678,50.945v-3.673h15.383c-1.648,4.218-3.23,8.273-4.746,12.164c-1.515,3.892-3.036,7.838-4.563,11.838
	h-4.292c1.164-3.104,2.419-6.4,3.765-9.892s2.685-6.971,4.019-10.438H105.678z"/>
<path fill="#FFFFFF" d="M113.992,128.13c0,5.566-4.512,10.078-10.078,10.078s-10.077-4.512-10.077-10.078
	c0-5.566,4.511-10.078,10.077-10.078S113.992,122.564,113.992,128.13 M76.771,128.13c0,5.566-4.512,10.078-10.078,10.078
	s-10.078-4.512-10.078-10.078c0-5.566,4.512-10.078,10.078-10.078S76.771,122.564,76.771,128.13"/>
<path fill="#FFFFFF" d="M70.073,107.992c-9.816,0-19.649-0.068-29.41-0.256c-2.65,0.001-4.312-2.671-4.438-5.363
	c-2.857-16.484-6.097-32.507-9.23-48.004c-2.58-12.761-5.244-25.94-7.64-39.131c-2.438-1.32-4.896-2.472-7.285-3.591
	c-1.134-0.531-2.252-1.055-3.348-1.586L0,6.035L2.787,0l8.778,4.051c1.127,0.546,2.218,1.057,3.324,1.575
	c2.948,1.381,5.997,2.81,9.104,4.585l1.348,0.77l0.275,1.527c0.694,3.856,1.413,7.716,2.147,11.567
	c7.152,0.202,14.731,0.337,23.087,0.412c13.596,0.121,27.467,0.06,40.881,0.001c16.37-0.072,33.298-0.146,49.848,0.109l0.304,0.005
	l0.298,0.06c1.824,0.365,3.341,1.43,4.385,3.08c1.682,2.656,1.672,6.024,1.152,8.102c-2.787,10.801-4.991,21.352-7.122,31.556
	c-1.482,7.097-3.016,14.436-4.725,21.761l-0.6,2.568H41.078c0.571,3.115,1.13,6.246,1.677,9.397
	c22.454,0.395,45.241,0.175,67.3-0.036c7.772-0.074,15.554-0.148,23.348-0.198l0.043,6.648c-7.787,0.049-15.562,0.124-23.327,0.198
	C96.954,107.864,83.529,107.992,70.073,107.992z M40.727,101.088c0.038,0.001,0.078,0.002,0.116,0.002
	C40.804,101.089,40.766,101.088,40.727,101.088z M39.841,85.08h90.149c1.458-6.4,2.798-12.813,4.099-19.04
	c2.146-10.278,4.366-20.906,7.187-31.833c0.286-1.144-0.041-2.566-0.36-2.971c-16.306-0.243-33.001-0.17-49.154-0.1
	c-13.436,0.058-27.33,0.12-40.968-0.001c-7.826-0.07-14.978-0.192-21.737-0.374c1.468,7.513,2.976,14.97,4.456,22.29
	C35.621,63.492,37.78,74.17,39.841,85.08z"/>
</svg>
