<?xml version="1.0" encoding="utf-8"?>
<!-- Generator: Adobe Illustrator 22.1.0, SVG Export Plug-In . SVG Version: 6.00 Build 0)  -->
<svg version="1.1" id="Ebene_1" xmlns="http://www.w3.org/2000/svg" xmlns:xlink="http://www.w3.org/1999/xlink" x="0px" y="0px"
	 width="79.354px" height="126.246px" viewBox="0 0 79.354 126.246" enable-background="new 0 0 79.354 126.246"
	 xml:space="preserve">
<g>
	<g>
		<path fill="#FFFFFF" d="M35.07,80.695c-4.544,0-9.095-0.031-13.613-0.119c0,0,0,0,0,0c-1.226,0-1.994-1.236-2.053-2.482
			c-1.323-7.631-2.823-15.048-4.273-22.222c-1.193-5.904-2.426-12.001-3.535-18.104c-1.128-0.61-2.265-1.144-3.371-1.662
			c-0.525-0.246-1.042-0.488-1.549-0.734l-4.036-1.862l1.29-2.794l4.063,1.875c0.521,0.253,1.026,0.49,1.539,0.729
			c1.364,0.64,2.774,1.301,4.212,2.122l0.624,0.356l0.127,0.708c0.321,1.785,0.654,3.57,0.994,5.353
			c3.315,0.094,6.823,0.157,10.686,0.191c6.293,0.058,12.712,0.028,18.92,0.001c7.577-0.033,15.41-0.067,23.069,0.051l0.277,0.029
			c0.845,0.168,1.547,0.661,2.031,1.424c0.778,1.229,0.774,2.788,0.534,3.75c-1.292,5.003-2.312,9.89-3.3,14.615
			c-0.685,3.281-1.394,6.673-2.184,10.06l-0.277,1.189H21.65c0.264,1.441,0.523,2.891,0.776,4.35
			c10.387,0.182,20.932,0.081,31.139-0.017c3.6-0.035,7.204-0.069,10.814-0.092l0.02,3.077c-3.606,0.023-7.208,0.057-10.804,0.092
			C47.504,80.636,41.293,80.695,35.07,80.695z M21.077,70.09h41.721c0.674-2.958,1.293-5.922,1.895-8.8
			c0.994-4.76,2.022-9.683,3.329-14.744c0.132-0.529-0.02-1.187-0.167-1.374c-7.546-0.112-15.273-0.079-22.749-0.046
			c-6.218,0.028-12.647,0.055-18.961,0c-3.618-0.032-6.928-0.089-10.061-0.173c0.679,3.475,1.376,6.924,2.061,10.31
			C19.124,60.096,20.123,65.04,21.077,70.09z"/>
	</g>
	<path fill="#FFFFFF" d="M55.394,90.015c0,2.576-2.088,4.664-4.664,4.664c-2.576,0-4.664-2.088-4.664-4.664
		c0-2.576,2.088-4.664,4.664-4.664C53.306,85.351,55.394,87.439,55.394,90.015 M38.168,90.015c0,2.576-2.088,4.664-4.664,4.664
		s-4.664-2.088-4.664-4.664c0-2.576,2.088-4.664,4.664-4.664S38.168,87.439,38.168,90.015"/>
	<path fill="#FFFFFF" d="M74.333,108.161l-1.646,13.388l-0.025,0.799c-0.064-0.113-0.137-0.23-0.218-0.351s-0.137-0.222-0.169-0.303
		c-0.372-0.564-0.847-1.23-1.429-1.997c-0.581-0.766-1.21-1.582-1.888-2.445c-0.678-0.864-1.38-1.756-2.106-2.676
		c-0.727-0.92-1.433-1.815-2.119-2.687s-1.323-1.695-1.912-2.47c-0.59-0.774-1.078-1.46-1.465-2.057l-2.228,18.085h1.647l1.67-13.51
		v-0.774c0.065,0.113,0.141,0.23,0.23,0.351c0.089,0.121,0.149,0.214,0.182,0.278c0.355,0.565,0.811,1.231,1.368,1.998
		c0.557,0.766,1.174,1.594,1.852,2.481c0.678,0.888,1.384,1.796,2.118,2.724c0.735,0.928,1.449,1.836,2.143,2.724
		c0.694,0.887,1.34,1.723,1.937,2.505c0.597,0.783,1.089,1.457,1.477,2.022l2.227-18.085H74.333z M52.519,125.447h1.671l2.13-17.286
		h-1.67L52.519,125.447z M44.166,117.53l-0.169,1.453h3.728l-0.532,4.358c-0.565,0.242-1.15,0.423-1.756,0.544
		c-0.605,0.121-1.174,0.182-1.706,0.182c-0.985,0-1.873-0.169-2.664-0.508c-0.791-0.339-1.461-0.799-2.009-1.38
		c-0.549-0.582-0.973-1.259-1.271-2.034c-0.299-0.775-0.448-1.598-0.448-2.47c0-1.113,0.234-2.167,0.702-3.159
		c0.468-0.993,1.085-1.86,1.852-2.603c0.767-0.742,1.646-1.327,2.639-1.755c0.993-0.428,2.013-0.642,3.063-0.642
		c0.678,0,1.364,0.093,2.058,0.279c0.694,0.185,1.291,0.44,1.791,0.762l0.993-1.355c-0.614-0.404-1.332-0.71-2.155-0.92
		c-0.823-0.21-1.646-0.315-2.469-0.315c-1.308,0-2.575,0.254-3.801,0.762c-1.227,0.509-2.309,1.211-3.245,2.107
		c-0.936,0.896-1.686,1.957-2.251,3.184c-0.565,1.226-0.848,2.55-0.848,3.97c0,1.082,0.178,2.091,0.533,3.026
		c0.355,0.937,0.872,1.748,1.549,2.434c0.678,0.686,1.502,1.222,2.47,1.61c0.968,0.387,2.074,0.581,3.317,0.581
		c0.92,0,1.816-0.109,2.687-0.327c0.872-0.218,1.663-0.521,2.373-0.908l0.823-6.876H44.166z M18.285,114.007
		c0.485-0.879,1.094-1.65,1.828-2.312c0.734-0.661,1.558-1.182,2.47-1.561c0.911-0.379,1.868-0.569,2.869-0.569
		c0.92,0,1.767,0.169,2.542,0.508c0.775,0.339,1.444,0.803,2.009,1.392c0.565,0.59,1.009,1.283,1.332,2.082
		c0.323,0.799,0.484,1.651,0.484,2.555c0,1.081-0.226,2.106-0.678,3.074c-0.452,0.969-1.053,1.816-1.803,2.543
		c-0.751,0.726-1.619,1.299-2.603,1.719c-0.985,0.419-2.01,0.629-3.075,0.629c-0.985,0-1.888-0.19-2.712-0.569
		c-0.823-0.379-1.521-0.896-2.094-1.549c-0.573-0.654-0.992-1.421-1.259-2.3c-0.266-0.88-0.335-1.82-0.205-2.821
		C17.502,115.827,17.801,114.887,18.285,114.007 M16.01,120.254c0.322,1.073,0.835,2.009,1.537,2.808
		c0.702,0.799,1.561,1.429,2.578,1.889s2.131,0.69,3.341,0.69c1.308,0,2.563-0.258,3.765-0.775c1.202-0.516,2.268-1.214,3.196-2.094
		c0.928-0.88,1.666-1.905,2.215-3.075c0.549-1.17,0.823-2.417,0.823-3.741c0-1.097-0.197-2.13-0.593-3.099
		c-0.395-0.968-0.94-1.815-1.634-2.542c-0.694-0.726-1.517-1.299-2.469-1.719c-0.953-0.419-1.994-0.629-3.124-0.629
		c-1.21,0-2.381,0.234-3.51,0.702c-1.13,0.468-2.143,1.106-3.039,1.913c-0.895,0.807-1.642,1.747-2.239,2.82
		c-0.597,1.074-0.969,2.215-1.114,3.426C15.598,118.039,15.686,119.181,16.01,120.254 M14.242,125.447l0.194-1.574h-9.2
		l1.936-15.712H5.526l-2.13,17.286H14.242z"/>
	<path fill="#FFFFFF" d="M76.263,4.289c-0.708,1.842-1.419,3.69-2.134,5.544c-0.715,1.855-1.381,3.606-1.999,5.254h2.279
		c0.811-2.124,1.619-4.22,2.424-6.287c0.805-2.067,1.645-4.221,2.521-6.462h-8.171v1.951H76.263z M64.557,15.455l5.448-14.817h-1.99
		c-0.927,2.486-1.838,4.955-2.733,7.408c-0.895,2.454-1.806,4.923-2.734,7.409H64.557z M57.43,11.841v3.245h1.989v-3.245h1.913V9.93
		h-1.913V2.184c-0.592,0.772-1.214,1.564-1.864,2.376c-0.65,0.811-1.304,1.629-1.961,2.453c-0.656,0.824-1.31,1.642-1.96,2.453
		c-0.651,0.812-1.272,1.604-1.864,2.376H57.43z M57.43,9.93h-1.816C55.704,9.8,55.833,9.627,56,9.408s0.338-0.444,0.512-0.676
		c0.174-0.232,0.344-0.454,0.512-0.666c0.167-0.213,0.302-0.383,0.406-0.512V9.93z M48.254,11.493
		c0.425-0.553,0.795-1.11,1.111-1.67c0.315-0.561,0.566-1.13,0.753-1.71s0.28-1.178,0.28-1.796c0-0.541-0.1-1.063-0.299-1.565
		c-0.2-0.502-0.483-0.943-0.85-1.323c-0.367-0.38-0.811-0.683-1.333-0.908c-0.522-0.225-1.098-0.338-1.729-0.338
		c-0.683,0-1.288,0.113-1.816,0.338c-0.528,0.225-0.972,0.525-1.333,0.898c-0.36,0.374-0.634,0.805-0.821,1.294
		c-0.186,0.49-0.28,0.992-0.28,1.507c0,0.245,0.036,0.521,0.107,0.831c0.07,0.309,0.173,0.618,0.309,0.927
		c0.135,0.309,0.299,0.596,0.492,0.859c0.193,0.264,0.419,0.461,0.676,0.59L44.7,8.211c-0.245-0.245-0.435-0.532-0.57-0.86
		s-0.203-0.705-0.203-1.13c0-0.167,0.032-0.373,0.097-0.618c0.064-0.245,0.183-0.477,0.357-0.696
		c0.174-0.218,0.406-0.408,0.695-0.57c0.29-0.16,0.66-0.241,1.111-0.241c0.219,0,0.457,0.052,0.715,0.155
		c0.257,0.103,0.495,0.254,0.715,0.454c0.218,0.199,0.402,0.453,0.55,0.763c0.148,0.309,0.222,0.669,0.222,1.081
		c0,0.618-0.177,1.263-0.531,1.932c-0.354,0.67-0.821,1.359-1.4,2.067c-0.58,0.708-1.243,1.439-1.99,2.192
		c-0.747,0.754-1.52,1.536-2.318,2.347h8.924v-1.931h-4.172C47.378,12.602,47.829,12.048,48.254,11.493 M35.814,9.205
		c-0.206-0.534-0.493-0.991-0.86-1.371s-0.808-0.67-1.323-0.869c-0.515-0.2-1.088-0.3-1.719-0.3c-0.348,0-0.667,0.042-0.956,0.126
		c-0.29,0.084-0.551,0.187-0.783,0.309c-0.232,0.122-0.428,0.258-0.589,0.406c-0.161,0.148-0.293,0.286-0.396,0.415
		c0-0.155-0.013-0.322-0.039-0.502c-0.025-0.181-0.038-0.361-0.038-0.541h-1.777v12.15h1.854v-4.539c0-0.065-0.003-0.119-0.01-0.165
		c-0.006-0.045-0.009-0.093-0.009-0.144c0.18,0.27,0.512,0.524,0.995,0.763c0.483,0.238,1.039,0.357,1.671,0.357
		c0.63,0,1.21-0.106,1.738-0.319c0.528-0.212,0.982-0.512,1.362-0.898s0.673-0.84,0.879-1.362c0.206-0.521,0.309-1.091,0.309-1.709
		C36.123,10.341,36.02,9.74,35.814,9.205 M33.95,11.948c-0.11,0.303-0.264,0.57-0.464,0.802c-0.2,0.232-0.447,0.412-0.744,0.541
		c-0.296,0.129-0.631,0.193-1.004,0.193c-0.374,0-0.715-0.064-1.024-0.193c-0.309-0.129-0.576-0.306-0.801-0.531
		c-0.226-0.225-0.403-0.493-0.532-0.802s-0.193-0.644-0.193-1.004c0-0.348,0.064-0.673,0.193-0.976
		c0.129-0.302,0.306-0.566,0.532-0.792c0.225-0.225,0.492-0.399,0.801-0.521c0.309-0.123,0.65-0.184,1.024-0.184
		c0.747,0,1.33,0.235,1.748,0.705c0.419,0.47,0.628,1.066,0.628,1.787C34.114,11.321,34.059,11.646,33.95,11.948 M18.912,10.017
		c0.128-0.303,0.305-0.567,0.531-0.792C19.668,9,19.932,8.819,20.235,8.684c0.302-0.135,0.628-0.203,0.975-0.203
		c0.348,0,0.673,0.068,0.976,0.203C22.488,8.819,22.752,9,22.978,9.225c0.225,0.225,0.405,0.489,0.541,0.792
		c0.135,0.302,0.203,0.628,0.203,0.975c0,0.348-0.068,0.673-0.203,0.976c-0.136,0.303-0.316,0.567-0.541,0.792
		c-0.226,0.225-0.49,0.402-0.792,0.531c-0.303,0.129-0.628,0.193-0.976,0.193c-0.347,0-0.673-0.064-0.975-0.193
		c-0.303-0.129-0.567-0.306-0.792-0.531c-0.226-0.225-0.403-0.489-0.531-0.792c-0.129-0.303-0.194-0.628-0.194-0.976
		C18.718,10.645,18.783,10.319,18.912,10.017 M17.231,12.74c0.232,0.535,0.544,0.992,0.937,1.372s0.853,0.673,1.381,0.879
		s1.094,0.309,1.7,0.309c0.631,0,1.21-0.113,1.738-0.338s0.986-0.534,1.372-0.927c0.386-0.393,0.686-0.853,0.898-1.381
		c0.213-0.528,0.319-1.089,0.319-1.681c0-0.592-0.11-1.149-0.328-1.671c-0.22-0.522-0.519-0.976-0.899-1.362
		c-0.38-0.386-0.834-0.692-1.362-0.917c-0.528-0.226-1.101-0.338-1.719-0.338c-0.605,0-1.175,0.112-1.709,0.338
		c-0.535,0.225-1.002,0.531-1.401,0.917c-0.399,0.386-0.712,0.84-0.937,1.362c-0.225,0.522-0.338,1.079-0.338,1.671
		C16.883,11.617,16.999,12.206,17.231,12.74 M7.321,15.087h1.855v-3.96c0-0.373,0.061-0.721,0.183-1.043
		c0.123-0.321,0.297-0.598,0.522-0.83c0.225-0.232,0.496-0.416,0.811-0.551c0.316-0.135,0.66-0.203,1.034-0.203
		c0.541,0.026,0.94,0.184,1.197,0.474c0.258,0.289,0.399,0.634,0.425,1.033v5.08h1.836V9.138c-0.026-0.747-0.29-1.346-0.792-1.797
		c-0.503-0.45-1.179-0.676-2.029-0.676c-0.811,0.013-1.474,0.219-1.989,0.618c-0.516,0.4-0.915,0.928-1.198,1.584V0.001H7.321
		V15.087z M4.144,6.925C3.712,6.765,3.297,6.685,2.898,6.685c-0.296,0-0.599,0.041-0.908,0.125S1.394,7.032,1.131,7.225
		C0.866,7.419,0.651,7.67,0.483,7.979C0.316,8.288,0.232,8.674,0.232,9.138c0,0.463,0.087,0.847,0.261,1.149
		c0.174,0.303,0.386,0.551,0.638,0.744c0.251,0.193,0.527,0.354,0.83,0.483s0.58,0.248,0.831,0.357
		c0.251,0.11,0.463,0.229,0.637,0.358c0.174,0.128,0.261,0.296,0.261,0.502c0,0.206-0.087,0.38-0.261,0.521
		c-0.174,0.142-0.422,0.213-0.743,0.213c-0.207,0-0.406-0.032-0.599-0.097c-0.193-0.064-0.361-0.135-0.503-0.212
		c-0.141-0.077-0.254-0.145-0.338-0.203c-0.083-0.058-0.125-0.08-0.125-0.068c-0.168,0.194-0.309,0.361-0.425,0.503
		c-0.116,0.141-0.239,0.289-0.367,0.444C0.2,13.986,0.09,14.115,0,14.217c0.284,0.335,0.673,0.593,1.169,0.773
		s1.008,0.27,1.536,0.27c0.438,0,0.831-0.064,1.178-0.193c0.348-0.128,0.647-0.302,0.898-0.521c0.252-0.219,0.445-0.483,0.58-0.792
		c0.135-0.309,0.203-0.651,0.203-1.024c0-0.425-0.087-0.783-0.261-1.072c-0.174-0.29-0.386-0.532-0.637-0.725
		c-0.252-0.193-0.529-0.354-0.831-0.483c-0.303-0.128-0.58-0.254-0.831-0.376C2.753,9.951,2.541,9.817,2.367,9.669
		C2.193,9.521,2.106,9.338,2.106,9.118c0-0.257,0.1-0.428,0.299-0.511c0.2-0.084,0.39-0.126,0.57-0.126
		c0.168,0,0.332,0.023,0.493,0.068C3.629,8.594,3.77,8.642,3.893,8.694C4.015,8.744,4.141,8.816,4.27,8.906
		c0.141-0.193,0.263-0.354,0.367-0.483C4.74,8.294,4.846,8.156,4.955,8.007c0.11-0.148,0.203-0.28,0.28-0.396
		C4.939,7.316,4.575,7.087,4.144,6.925"/>
</g>
</svg>
