<?xml version="1.0" encoding="UTF-8" standalone="no"?><!DOCTYPE svg PUBLIC "-//W3C//DTD SVG 1.1//EN" "http://www.w3.org/Graphics/SVG/1.1/DTD/svg11.dtd"><svg width="100%" height="100%" viewBox="0 0 375 375" version="1.1" xmlns="http://www.w3.org/2000/svg" xmlns:xlink="http://www.w3.org/1999/xlink" xml:space="preserve" xmlns:serif="http://www.serif.com/" style="fill-rule:evenodd;clip-rule:evenodd;stroke-linejoin:round;stroke-miterlimit:1.41421;"><g><g><path d="M83.751,226.207l0,-195.315c-50.466,33.605 -83.751,90.97 -83.751,156.146c0,33.675 8.941,65.225 24.489,92.529l59.262,-53.36Zm-46.478,72.866c12.866,17.208 28.56,32.181 46.478,44.112l0,-85.96l-46.478,41.848Z" style="fill:#669db6;fill-rule:nonzero;"/><path d="M375,187.5c0,-54.134 -23.074,-102.766 -59.762,-136.992l-132.068,118.913l133.596,153.685c35.811,-34.152 58.234,-82.215 58.234,-135.606m-267.465,17.509l188.805,-170.001c-30.711,-21.962 -68.22,-35.025 -108.856,-35.025c-30.673,0 -54.388,7.513 -79.949,20.57l0,184.456Zm57.677,-19.418l-57.677,51.932l0,116.924c25.561,13.058 49.276,20.57 79.949,20.57c41.475,0 79.677,-13.629 110.729,-36.427l-133.001,-152.999Z" style="fill:#6ea0b9;fill-rule:nonzero;"/></g></g></svg>