<?xml version="1.0" encoding="UTF-8" standalone="no"?><!DOCTYPE svg PUBLIC "-//W3C//DTD SVG 1.1//EN" "http://www.w3.org/Graphics/SVG/1.1/DTD/svg11.dtd"><svg width="100%" height="100%" viewBox="0 0 72 60" version="1.1" xmlns="http://www.w3.org/2000/svg" xmlns:xlink="http://www.w3.org/1999/xlink" xml:space="preserve" xmlns:serif="http://www.serif.com/" style="fill-rule:evenodd;clip-rule:evenodd;stroke-linejoin:round;stroke-miterlimit:1.41421;"><g><path d="M46.986,46.259c-0.626,0.654 -1.284,1.276 -1.97,1.864c-4.608,3.947 -10.613,6.354 -16.911,6.523c-1.924,0.052 -3.865,-0.097 -5.759,-0.443c-1.725,-0.315 -3.388,-0.79 -5.001,-1.433c0,0 -1.254,-0.505 -2.267,-1.015c-1.932,-0.971 -3.748,-2.172 -5.382,-3.573c0,0 -0.85,-0.727 -1.567,-1.44c-0.289,-0.288 -0.571,-0.581 -0.847,-0.881c-0.161,-0.174 -0.207,-0.22 -0.497,-0.554c-0.568,-0.654 -1.108,-1.334 -1.612,-2.04c0,0 -1.102,-1.615 -1.704,-2.701c-1.156,-2.086 -2.025,-4.331 -2.595,-6.655c-0.054,-0.22 -0.105,-0.44 -0.153,-0.66c-0.849,-3.891 -0.819,-8.021 0.054,-11.875c0.466,-2.056 1.177,-4.069 2.115,-5.963c0,0 0.279,-0.558 0.491,-0.949c0.933,-1.728 2.058,-3.351 3.352,-4.84c0,0 0.533,-0.604 0.827,-0.914c0.261,-0.276 0.528,-0.545 0.802,-0.811c3.851,-3.739 8.795,-6.305 14.143,-7.262c1.641,-0.294 3.302,-0.438 4.996,-0.425c2.84,0.022 5.681,0.467 8.389,1.377c0,0 0.554,0.189 0.554,0.189c8.512,3.109 15.302,10.472 17.385,19.435c1.461,6.291 0.625,13.227 -2.494,19.055c-0.063,0.117 -0.127,0.234 -0.191,0.35l20.02,13.361l-3.885,5.822l-20.293,-13.542Zm-19.729,-39.047c-1.732,0.013 -2.962,0.166 -4.446,0.503c-1.909,0.434 -3.74,1.146 -5.449,2.114c-0.682,0.386 -1.553,0.949 -2.337,1.548c-0.232,0.178 -1.672,1.388 -2.518,2.291c-3.551,3.794 -5.583,9.155 -5.397,14.485c0.078,2.218 0.53,4.445 1.324,6.53c0.073,0.19 0.077,0.198 0.109,0.278c0.851,2.11 2.047,4.045 3.53,5.759c0.444,0.513 1.633,1.706 2.483,2.4c0.737,0.603 1.518,1.152 2.334,1.644c1.494,0.902 3.107,1.607 4.774,2.093c3.052,0.888 6.217,1.039 9.372,0.46c2.939,-0.538 5.738,-1.748 8.189,-3.532c1.902,-1.385 3.552,-3.106 4.871,-5.052c0.629,-0.927 0.776,-1.224 1.067,-1.768c1.351,-2.524 2.169,-5.355 2.343,-8.288c0.361,-6.099 -2.266,-12.371 -6.77,-16.376c-3.642,-3.238 -8.386,-5.014 -13.149,-5.088c-0.11,-0.001 -0.22,-0.001 -0.33,-0.001Z" style="fill:#00a4d1;fill-rule:nonzero;"/></g></svg>