<?xml version="1.0" encoding="UTF-8" standalone="no"?><!DOCTYPE svg PUBLIC "-//W3C//DTD SVG 1.1//EN" "http://www.w3.org/Graphics/SVG/1.1/DTD/svg11.dtd"><svg width="100%" height="100%" viewBox="0 0 87 69" version="1.1" xmlns="http://www.w3.org/2000/svg" xmlns:xlink="http://www.w3.org/1999/xlink" xml:space="preserve" xmlns:serif="http://www.serif.com/" style="fill-rule:evenodd;clip-rule:evenodd;stroke-linejoin:round;stroke-miterlimit:1.41421;"><path d="M64.029,62.643c2.964,-1.746 5.988,-4.039 9.076,-6.884c9.096,-8.608 13.645,-18.924 13.645,-30.945c0,-7.31 -1.767,-13.238 -5.3,-17.787c-3.533,-4.548 -8.144,-6.823 -13.827,-6.823c-5.117,0 -9.524,1.849 -13.219,5.544c-3.697,3.696 -5.544,8.144 -5.544,13.34c0,3.899 0.915,7.066 2.742,9.503c1.827,2.437 5.056,4.873 9.685,7.31c5.197,2.68 7.798,5.403 7.798,8.162c0,6.499 -6.905,13.402 -20.712,20.712l2.437,4.021c5.848,-2.356 10.252,-4.406 13.219,-6.153m-39.169,-6.884c4.548,-4.303 7.98,-9.095 10.294,-14.376c2.316,-5.278 3.473,-10.801 3.473,-16.569c0,-7.31 -1.767,-13.238 -5.3,-17.787c-3.533,-4.548 -8.183,-6.823 -13.95,-6.823c-5.117,0 -9.502,1.828 -13.157,5.483c-3.655,3.654 -5.483,8.123 -5.483,13.401c0,3.819 0.954,7.006 2.863,9.563c1.908,2.559 5.096,4.977 9.565,7.25c2.923,1.543 4.953,2.905 6.091,4.081c1.136,1.179 1.705,2.539 1.705,4.081c0,6.418 -6.904,13.322 -20.711,20.712l2.437,4.021c9.503,-3.818 16.892,-8.163 22.173,-13.037" style="fill:#6397af;fill-rule:nonzero;"/></svg>